<svg id="Layer_1" data-name="Layer 1" xmlns="http://www.w3.org/2000/svg" viewBox="0 0 154.7 82.98"><defs><style>.cls-1{fill:#032623;}</style></defs><title>bird-1</title><path class="cls-1" d="M.2.3C.2,1.5.2.6,0,1,.4,2.8,4.4,5.2,6.1,6.4A20.29,20.29,0,0,1,9.2,9c.5.5.9,1.1,1.4,1.5a6.44,6.44,0,0,0,2,1.1c-.6,2.7-1.3,1.3,1.1,4.7,1,1.4-.3,2.4,1,3.8a13.79,13.79,0,0,0,2.5,1.7c-.9,1.8-.4,3.3,1.4,4.1a11.89,11.89,0,0,0,3,1.4c0,1.8,1.9,3.2,3.5,3.5-.3,1.1-.7,1-.7,2.4s2.3,3.3,3.5,3.5c-.2,2.8-1.3,3.6,2.9,5.8,0,2.6.6,3.4,3.3,4,0,1.9.5,2.4,1.8,3a6.86,6.86,0,0,0,3.9,1c-.5,2.2-.4,5.5,2.7,5.5,1.5,0,4.7-1.8,6.3-2.3.5-.2,4.1-1.4,4.1.1a13.35,13.35,0,0,1-1.2,2.4c-.9,1.8-1.3,1.5-1.3,3.6,0,1.5,1.4,1.8,2,2.7-.3,1.5-.6,2.5.7,3.7,2.4,2.2,8.1-1.5,11.5-1.5-.7,1.1-2.8,1.4-4.3,1.9s-3.4.8-4.8,1.4l-4.4,1.8c-1.5.7-2.5,1.5-4,2.2a77.08,77.08,0,0,1-8.8,3.6,20.36,20.36,0,0,0-2.2.9L31.4,78c-1.4.3-2.1,0-2.1,1.4,0,.5,1,1.6,1.6,1.6l5.6-.4c1.2-.2,2.2.2,3.7.2s3.9-.4,4.8-.2c1.1.2,3.7,2.2,8.4,1a10.52,10.52,0,0,0,2.1-.6,4.44,4.44,0,0,0,.2,1.3,7.5,7.5,0,0,0,2.2.2c2.8.1,2.3,1.8,7-1.9a26.7,26.7,0,0,0,4.8-4.7c2-2.7,6.7-1.5,9.8-1.9,3.7-.5,8.7-1,12.2-2,5.8-1.7,6.9.1,12.2-4.2,1.4-1.1,2.4-2.5,4.2-3.1,1.6-.6,4.2-.9,5.8.1.6.4.9.5,1.1,1.3,1.7,0,1.8-1.6,1.8-3.1a4.62,4.62,0,0,0-1.2-3.3c-.6-.6-.4-.2-.6-1-.3-1.2-.1-1.3-.9-2.2a6.52,6.52,0,0,0-2.8-1.9c-.7-.2-2.2.1-1.9-.9.4-1.5,2.2-2.2,3.5-2.8l3.2-1.5c4.1-2,7.6-5,11.7-6.9.9-.4,1-.7,2-1.1a20,20,0,0,0,7.5-4.9c2.9-2.9,8-2.3,13.8-11a7.61,7.61,0,0,0,1.2-1.9c2.6-5,2.4-3.5,2.4-10.2a42.37,42.37,0,0,0-1.2-7.7,1.94,1.94,0,0,0-2.8-1.2c-.3.1-.1.1-.4.3l-.3.4c-.6-2.7-2-3.6-4.2-2.2-1.1.7-.7.5-1.3,1.6-1.7-.4-2.6-1-4.4.5a11,11,0,0,0-2.6,4.1l-1,2.3c-2.6,0-3.3,1.1-4.8,2.7-1.8,1.9-.5,3.1-3,4.5a6.56,6.56,0,0,0-1.9,1.8c-1,1.2-2.5,1-4.2,3.3,0,.1-.2.2-.2.2l-.2.2c-3.6,3.5-4.9,3.5-6.2,4.4-1.8,1.3-.6,2.1-3.8,4-1.5.9-3,2.2-4.4,3.2-1.2.9-4.2,2-3.1,4.2a17.68,17.68,0,0,1-3.2,2.1c-3.1,1.4-1.3,1.6-2.5,2.8a85.4,85.4,0,0,1-8.7,5.5c-2.2,1.1-1.4,2.9-5.3-.2-1.8-1.4-2.5-2.6-3.3-3.1a11.85,11.85,0,0,1-3.5-3.2,20.82,20.82,0,0,0-2.1-2.1,37.18,37.18,0,0,0-4-4.6l-1.9-2.5c-3.3-5.3-3.1-3.3-6.3-6.6-2.3-2.3-5.4-3.3-7.9-5.2-1-.8-1.1-1.4-2.4-2l-5.2-3.5a5.76,5.76,0,0,1-2.1-2.3A8.65,8.65,0,0,0,44,13.2a14.7,14.7,0,0,0-1.3-1c-3.5-2.7-2.8-1.7-7.5-3.3l-3.4-1c-4.9-1.6-.8-2-9.6-3.5A81.57,81.57,0,0,1,11.9,1.9,24.7,24.7,0,0,0,8.4.9,54,54,0,0,1,2.6,0C2.3.2,1.2-.1.2.3"/></svg>