<svg id="Layer_1" data-name="Layer 1" xmlns="http://www.w3.org/2000/svg" viewBox="0 0 216.38 178.9"><defs><style>.cls-1{fill:#dd9373;}.cls-2{fill:#a85f3f;}.cls-3{fill:#231f20;}</style></defs><title>Artboard 1</title><path class="cls-1" d="M1.5,72.5H35.1A22.9,22.9,0,0,0,20.9,84.1C2,83.8,1.5,72.5,1.5,72.5Z"/><path class="cls-1" d="M73,120.7a13.5,13.5,0,0,1,6,1.3c-8.5,10.1-20.7,17.1-20.7,17.1L44.6,177.4H40.2l3-44.9-.1-.1a73.09,73.09,0,0,0,12-11.7Z"/><path class="cls-1" d="M166.7,113l-3.1,64.5h-5.2l-8.7-47-.4-.1.7-4.8S161.4,119.8,166.7,113Z"/><path class="cls-2" d="M141,59a16.84,16.84,0,0,0,4-4,.83.83,0,0,1,1.5.6c-.6,7.5-4,20.3-22.9,16.1-.5-.1-1.1-.3-1.7-.4-14.6-3.8-21.8-19-20.5-34.2C102.9,18,114.1,1.7,136.3,1.6c13.7-.1,20.5,10.5,22.7,15h0c.6,1.2.9,2,.9,2-3.1,8.5-8,10-10.4,10.2a4.46,4.46,0,0,1-1.3,0s-10.7-10.6-21.1-3.6-10.1,31.3-.9,35.2C132.5,62.9,137.4,61.5,141,59Z"/><path class="cls-1" d="M55.2,120.7a73.09,73.09,0,0,1-12,11.7,85.3,85.3,0,0,1-9.7,6.7L19.8,177.4H15.4l3.1-83.2A22.88,22.88,0,0,1,20.9,84,22.64,22.64,0,0,1,35.1,72.4h0a24.1,24.1,0,0,1,6-.8h82.6c18.9,4.2,22.3-8.6,22.9-16.1a.83.83,0,0,0-1.5-.6,18.94,18.94,0,0,1-4,4,156.37,156.37,0,0,0,6.2-19c-6.8-1.4-13.8-9.6-13.8-9.6l16.2-1.6c2.3-.2,7.2-1.7,10.4-10.2,0,0-.3-.8-.9-2,1.2,0,6,1.6,6,1.6h18.6a7,7,0,0,1,4.4,1.6l8.3,7c1.5,1.3,18.2,8.6,18.2,8.6,1.2,1.8.1,10.1-1.7,11.2-4.8,2.8-12.8-.6-22.2,3-7.8,2.9-16,3.1-20.3,3h0s11.7,40.7-3.8,60.5c-5.3,6.8-16.7,12.6-16.7,12.6l-.7,4.8L142,177.5h-4.8l-7.6-44.9H97.5a15.23,15.23,0,0,1-10.3-4.1l-3.9-3.6a15.17,15.17,0,0,0-4.3-2.8,14.11,14.11,0,0,0-6-1.3H55.2Z"/><path class="cls-3" d="M172.6,53.9h-2.2c-2-.1-3.1-.2-3.1-.2a8.36,8.36,0,0,1-7.8-5.3,1.39,1.39,0,1,1,2.6-1,5.28,5.28,0,0,0,5.2,3.5c.3,0,1.3.1,3.1.2,4.2.1,12.3,0,19.7-2.9,5.2-2,10.1-1.9,14-1.9,3.2.1,6,.1,7.9-1,1-.8,2-7.1,1.4-8.9-3.7-1.6-16.5-7.3-18.1-8.6l-8.3-7a5.6,5.6,0,0,0-3.5-1.3H164.9a.9.9,0,0,1-.5-.1c-2.2-.7-5-1.5-5.6-1.6a1.45,1.45,0,0,1-1.4-1.5,1.39,1.39,0,0,1,1.5-1.4c1.2,0,4.8,1.2,6.2,1.6h18.4a8.59,8.59,0,0,1,5.3,1.9l8.3,7c.9.8,9.8,4.9,17.9,8.4a1.47,1.47,0,0,1,.6.5c1.3,1.9.7,6.5.2,8.6-.8,3.7-2,4.4-2.4,4.7-2.6,1.5-5.8,1.5-9.4,1.4-3.9-.1-8.2-.1-13,1.7C184.7,53.3,177.8,53.9,172.6,53.9Z"/><path class="cls-3" d="M19.9,178.9H15.5a1.53,1.53,0,0,1-1-.4,1.43,1.43,0,0,1-.4-1l3.1-83.2a23.88,23.88,0,0,1,2.6-10.8,30.3,30.3,0,0,1,2.4-3.8,1.43,1.43,0,1,1,2.3,1.7,23.94,23.94,0,0,0-2.1,3.4,21.22,21.22,0,0,0-2.3,9.6l-3,81.7H19l13.3-37.3a1.56,1.56,0,0,1,.6-.8,91.08,91.08,0,0,0,9.5-6.6,68.19,68.19,0,0,0,11.8-11.5c4.4-5.5,6.7-10.8,6.8-15.7a1.52,1.52,0,0,1,1.5-1.4,1.45,1.45,0,0,1,1.4,1.5c-.2,5.6-2.7,11.4-7.4,17.4a73.81,73.81,0,0,1-12.3,11.9,95.43,95.43,0,0,1-9.4,6.6L21.3,178A1.69,1.69,0,0,1,19.9,178.9Z"/><path class="cls-3" d="M35.1,73.9a1.5,1.5,0,0,1-1.4-1,1.43,1.43,0,0,1,1-1.8,23,23,0,0,1,6.4-.9H45A1.4,1.4,0,1,1,45,73H41.1a22.39,22.39,0,0,0-5.7.8C35.4,73.9,35.2,73.9,35.1,73.9Z"/><path class="cls-3" d="M123.7,73.1H65.3a1.4,1.4,0,0,1,0-2.8h58.4a1.4,1.4,0,0,1,0,2.8Z"/><path class="cls-3" d="M141,60.4a.75.75,0,0,1-.5-.1,1.48,1.48,0,0,1-.8-1.9,156.42,156.42,0,0,0,6.1-18.6l.1-.6a1.43,1.43,0,1,1,2.8.6l-.2.8a161.52,161.52,0,0,1-6.2,18.9A1.29,1.29,0,0,1,141,60.4Z"/><path class="cls-3" d="M44.7,178.9H40.3a1.23,1.23,0,0,1-1-.5,1.5,1.5,0,0,1-.4-1.1l3-44.9a1.5,1.5,0,0,1,1.5-1.3,1.37,1.37,0,0,1,1.3,1.5L41.8,176h1.9L57,138.7a1.56,1.56,0,0,1,.6-.8c.1-.1,12-7.1,20.3-16.8a1.42,1.42,0,0,1,2.2,1.8,92.21,92.21,0,0,1-20.6,17.2L46,177.9A1.38,1.38,0,0,1,44.7,178.9Z"/><path class="cls-3" d="M142,178.9h-4.8a1.4,1.4,0,0,1-1.4-1.2l-9.4-55.4a1.47,1.47,0,1,1,2.9-.5l9,54.2h2.4l7.9-50.7a1.78,1.78,0,0,1,.8-1.1c.1-.1,11.2-5.7,16.2-12.2,14.9-19,3.7-58.8,3.5-59.2a1.46,1.46,0,0,1,2.8-.8c.5,1.7,11.7,41.6-4,61.8-4.7,6.1-13.9,11.3-16.5,12.6l-7.9,51.2A1.58,1.58,0,0,1,142,178.9Z"/><path class="cls-3" d="M163.6,178.9h-5.2a1.4,1.4,0,0,1-1.4-1.2l-8.7-47a1.56,1.56,0,0,1,1.1-1.7,1.47,1.47,0,0,1,1.7,1.1l8.5,45.8h2.6l3.1-63.1a1.45,1.45,0,1,1,2.9.1l-3.1,64.5A1.61,1.61,0,0,1,163.6,178.9Z"/><path class="cls-3" d="M129.6,133.9H97.5a16.48,16.48,0,0,1-11.3-4.5l-3.9-3.6a14.67,14.67,0,0,0-3.8-2.5,13,13,0,0,0-5.5-1.2H55.3a1.4,1.4,0,0,1,0-2.8H73a16.27,16.27,0,0,1,6.6,1.4,17,17,0,0,1,4.7,3l3.9,3.6a13.33,13.33,0,0,0,9.3,3.7h32.1a1.45,1.45,0,0,1,1.5,1.4A1.54,1.54,0,0,1,129.6,133.9Z"/><path class="cls-3" d="M130.6,73.9a32.18,32.18,0,0,1-7.2-.9c-.5-.1-1.1-.3-1.7-.4-12.2-3.2-20.5-14.3-21.6-29.1a1.32,1.32,0,0,1,1.3-1.5,1.37,1.37,0,0,1,1.5,1.3c1,13.5,8.5,23.6,19.5,26.5.5.1,1.1.3,1.6.4,6.6,1.5,11.7.9,15.3-1.7,3-2.2,4.9-6,5.7-11.2a20.13,20.13,0,0,1-3.1,2.8c-3.4,2.4-8.9,4.5-16.1,1.4-4.1-1.8-6.9-7.1-7.6-14.3-.7-8.1,1.5-18.9,8.3-23.4,10-6.7,20.3,1.5,22.5,3.4h.5c2.2-.2,6.2-1.6,9-8.8-.1-.3-.3-.7-.5-1.2,0-.1-.1-.1-.1-.2-2.1-4.3-8.5-14.2-21.4-14.2a26.2,26.2,0,0,0-2.8.1,1.32,1.32,0,0,1-1.5-1.3A1.32,1.32,0,0,1,133.5.1c1-.1,2-.1,3-.1,14.2,0,21.3,10.7,23.8,15.5.1.1.1.2.2.2.6,1.3.9,2.1.9,2.1a1.7,1.7,0,0,1,0,1c-3.3,9.1-8.7,10.9-11.6,11.1a8.74,8.74,0,0,1-1.7,0,3,3,0,0,1-.8-.4c-.4-.4-10-9.7-19.3-3.5-5.8,3.8-7.7,13.5-7,20.8.5,6,2.8,10.6,5.9,11.9,4.8,2.1,9.3,1.7,13.3-1.1a16.23,16.23,0,0,0,3.7-3.7,2.38,2.38,0,0,1,2.6-.8,2.25,2.25,0,0,1,1.5,2.3c-.6,7.1-3,12.2-7.1,15.2C138.2,72.9,134.7,73.9,130.6,73.9Z"/><path class="cls-3" d="M103.1,29.2h-.4a1.43,1.43,0,0,1-1-1.8A42.5,42.5,0,0,1,108,13.8a1.43,1.43,0,1,1,2.3,1.7,38.55,38.55,0,0,0-5.9,12.6A1.29,1.29,0,0,1,103.1,29.2Z"/><path class="cls-3" d="M149.2,41.6a18,18,0,0,1-2.2-.2c-7.2-1.5-14.3-9.8-14.6-10.1a1.49,1.49,0,0,1,1-2.4l16.2-1.6a1.46,1.46,0,1,1,.3,2.9l-13.3,1.3c2.4,2.4,6.8,6.2,11,7.1a6.68,6.68,0,0,0,4-.3,1.43,1.43,0,0,1,1.2,2.6A11.49,11.49,0,0,1,149.2,41.6Z"/><path class="cls-3" d="M20.9,85.5h0C.8,85.2,0,73,0,72.5a1.5,1.5,0,0,1,.4-1.1,1.28,1.28,0,0,1,1-.4H35a1.4,1.4,0,0,1,0,2.8H3.1c.9,2.8,4.4,8.5,17.7,8.7A1.45,1.45,0,0,1,22.2,84,1.23,1.23,0,0,1,20.9,85.5Z"/></svg>