<svg id="Layer_1" data-name="Layer 1" xmlns="http://www.w3.org/2000/svg" viewBox="0 0 280.54 279"><defs><style>.cls-1{fill:#e8962c;}.cls-2{fill:#ffe76d;}.cls-3{fill:#ffd800;}.cls-4{fill:#ffe242;}</style></defs><title>sun</title><path class="cls-1" d="M265.09,180.06c1.82-5.59,6.49-9.6,12.38-11.4-4.65-4-7.29-9.6-6.68-15.44s4.36-10.74,9.75-13.72c-5.39-3-9.13-7.88-9.75-13.72s2-11.41,6.68-15.44c-5.89-1.8-10.56-5.81-12.38-11.4s-.39-11.58,3.32-16.49c-6.14-.54-11.54-3.48-14.48-8.57s-2.79-11.25-.18-16.83c-6.12.76-12-1-15.95-5.37s-5.07-10.42-3.68-16.42c-5.82,2-12,1.51-16.71-1.94s-7.12-9.14-7-15.3c-5.28,3.18-11.38,4-16.75,1.58s-8.87-7.46-10-13.5c-4.5,4.2-10.31,6.24-16.05,5S157.33,5.67,154.93,0c-3.53,5.05-8.79,8.25-14.66,8.25S129.14,5.05,125.61,0C123.2,5.67,118.73,9.9,113,11.12s-11.55-.82-16.06-5c-1.17,6-4.67,11.11-10,13.5S75.41,21.2,70.13,18c.11,6.16-2.25,11.85-7,15.3s-10.89,4-16.71,1.94c1.39,6,.25,12.05-3.68,16.42s-9.83,6.13-15.94,5.37c2.6,5.58,2.75,11.74-.18,16.83s-8.35,8-14.48,8.57c3.71,4.91,5.13,10.9,3.32,16.49S9,108.54,3.06,110.34c4.66,4,7.29,9.6,6.68,15.44S5.39,136.52,0,139.5c5.39,3,9.13,7.88,9.74,13.72s-2,11.41-6.68,15.44c5.9,1.8,10.57,5.81,12.38,11.4s.4,11.58-3.31,16.49c6.13.54,11.54,3.48,14.47,8.57s2.79,11.25.19,16.83c6.11-.76,12,1,15.94,5.37s5.07,10.42,3.68,16.42c5.82-2,12-1.51,16.71,1.94s7.13,9.14,7,15.3c5.28-3.18,11.39-4,16.75-1.58s8.87,7.45,10,13.5c4.51-4.2,10.31-6.24,16.06-5s10.22,5.45,12.63,11.12c3.53-5.05,8.78-8.25,14.66-8.25S151.4,274,154.93,279c2.4-5.67,6.88-9.9,12.63-11.12s11.55.82,16.05,5c1.17-6,4.67-11.11,10-13.5s11.48-1.6,16.75,1.57c-.11-6.15,2.26-11.84,7-15.29s10.89-4,16.72-1.94c-1.39-6-.26-12.05,3.67-16.42s9.83-6.13,15.95-5.37c-2.61-5.58-2.76-11.74.18-16.83s8.34-8,14.48-8.57C264.7,191.63,263.27,185.64,265.09,180.06Z"/><circle class="cls-2" cx="140.27" cy="139.5" r="117.89" transform="translate(-4.03 4.17) rotate(-1.68)"/><circle class="cls-3" cx="140.27" cy="139.5" r="101.25" transform="translate(-23.87 249.93) rotate(-78.78)"/><path class="cls-4" d="M69.11,162.46a101.29,101.29,0,0,1,146.5-90.6A101.26,101.26,0,1,0,95,230.1,100.86,100.86,0,0,1,69.11,162.46Z"/></svg>