<?xml version="1.0" encoding="utf-8"?>
<!-- Generator: Adobe Illustrator 22.1.0, SVG Export Plug-In . SVG Version: 6.00 Build 0)  -->
<svg version="1.1" id="Layer_1" xmlns="http://www.w3.org/2000/svg" xmlns:xlink="http://www.w3.org/1999/xlink" x="0px" y="0px"
	 viewBox="0 0 1416.4 260.9" style="enable-background:new 0 0 1416.4 260.9;" xml:space="preserve">
<style type="text/css">
	.st0{fill:#087272;}
</style>
<g>
	<g>
		<path class="st0" d="M1416.4,260.4V108.7c-4.1-0.8-8.3-1.5-12.4-2.2c0.6-0.9,1.1-1.8,1.6-2.8c0,0-1.2,1.1-2.9,2.6
			c-2.3-0.4-4.7-0.8-7-1.2c2.3-1.4,4.4-3.1,5.6-4.8c0,0-6.1,2.5-13,3.6c-1.1-0.2-2.2-0.4-3.4-0.6c3.7-1.7,10.7-5.2,14.4-9.8
			c0,0-12.1,7.6-20.7,3.5c0,0,9.5-0.9,14.1-7.2c0,0-9,3.9-15.7,2c0,0,12.2-2.8,18.5-11.8c0,0-8.5,6.5-17.9,3.9
			c0,0,7.7-2.2,12.9-11.2c0,0-7.2,6-12,5.5c0,0,6.6-9,12.5-10.1c0,0-7.1-1.4-12.3,3.8l8.7-8.2l-12.6,4.7c0,0,4.9-3,10.5-11.8
			c0,0-6.5,4.1-11.6,3.6c0,0,6.6-4.9,8.7-10.4c0,0-6.8,6.6-9.8,4.8l6-5.9h-7.7c0,0,3.7-1.6,6-6.3c0,0-3.3,2.4-6.6,1.8l4-3.9h-4.5
			c0,0,1.7-1.6,2.9-4.3c0,0-2.1,1.8-3.8,1.5l-0.7-3.8l-1.1,0.9l-1.4-19.2l-1.4,19.2l-1.1-0.9l-0.7,3.8c-1.7,0.3-3.8-1.5-3.8-1.5
			c1.2,2.7,2.9,4.3,2.9,4.3h-4.5l4,3.9c-3.3,0.7-6.6-1.8-6.6-1.8c2.4,4.7,6,6.3,6,6.3l-5.9-0.6l4.2,6.5c-3,1.8-10.7-1.9-10.7-1.9
			c2.1,5.5,9.6,7.5,9.6,7.5c-3.2,0.3-8.4-0.8-12-1.6c0.3-0.6,0.6-1.1,0.8-1.7c0,0-0.7,0.7-1.7,1.5c-1.4-0.4-2.5-0.6-2.9-0.8l1.6-1.6
			h-6.1c0,0,2.9-1.2,4.7-4.9c0,0-2.6,1.9-5.1,1.4l3.1-3h-3.5c0,0,1.3-1.2,2.3-3.3c0,0-1.6,1.4-3,1.2l-0.5-2.9l-0.8,0.7l-1.1-15
			l-1.1,15l-0.8-0.7l-0.5,2.9c-1.3,0.2-3-1.2-3-1.2c1,2.1,2.3,3.3,2.3,3.3h-3.5l3.1,3c-2.6,0.5-5.1-1.4-5.1-1.4
			c1.8,3.7,4.7,4.9,4.7,4.9l-4.6-0.5l3.3,5c-1.9,1.1-6.3-0.6-7.8-1.2c0.7-0.9,1.4-1.9,2.2-3.1c0,0-5,3.2-9.1,2.8
			c0,0,5.2-3.9,6.8-8.1c0,0-5.3,5.1-7.7,3.8l4.7-4.6h-6.1c0,0,2.9-1.2,4.7-4.9c0,0-2.6,1.9-5.1,1.4l3.1-3h-3.5c0,0,1.3-1.2,2.3-3.3
			c0,0-1.6,1.4-3,1.2l-0.5-2.9l-0.8,0.7l-1.1-15l-1.1,15l-0.8-0.7l-0.5,2.9c-1.3,0.2-3-1.2-3-1.2c1,2.1,2.3,3.3,2.3,3.3h-3.5l3.1,3
			c-2.6,0.5-5.1-1.4-5.1-1.4c0.5,1,1.1,1.8,1.6,2.4c-1.4,0.8-5.3,2.8-8.5,2.5c0,0,5.2-3.9,6.8-8.1c0,0-5.3,5.1-7.7,3.8l4.7-4.6h-6.1
			c0,0,2.9-1.2,4.7-4.9c0,0-2.6,1.9-5.1,1.4l3.1-3.1h-3.5c0,0,1.3-1.2,2.3-3.3c0,0-1.6,1.4-3,1.2l-0.5-2.9l-0.8,0.7l-1.1-15l-1.1,15
			l-0.8-0.7l-0.5,2.9c-1.3,0.2-3-1.2-3-1.2c1,2.1,2.3,3.3,2.3,3.3h-3.5l3.1,3.1c-2.6,0.5-5.1-1.4-5.1-1.4c1.8,3.7,4.7,4.9,4.7,4.9
			l-4.6-0.5l3.3,5c-2.4,1.4-8.4-1.5-8.4-1.5c1.6,4.3,7.5,5.9,7.5,5.9c-4,0.4-12.4-2.1-12.4-2.1c0.5,0.8,1,1.4,1.5,2.1h-4.3
			c0,0,2.9-1.2,4.7-4.9c0,0-2.6,1.9-5.1,1.4l3.1-3h-3.5c0,0,1.3-1.2,2.3-3.3c0,0-1.6,1.4-3,1.2l-0.5-2.9l-0.8,0.7l-1.1-15l-1.1,15
			l-0.8-0.7l-0.5,2.9c-1.3,0.2-3-1.2-3-1.2c1,2.1,2.3,3.3,2.3,3.3h-3.5l3.1,3c-2.6,0.5-5.1-1.4-5.1-1.4c1.8,3.7,4.7,4.9,4.7,4.9
			l-4.6-0.5l3.3,5c-2.4,1.4-8.4-1.5-8.4-1.5c0.5,1.3,1.4,2.4,2.4,3.2c-1,0.5-2.4,1.1-3.9,1.5c-2-0.5-3.5-0.9-3.5-0.9
			c0.3,0.5,0.6,0.9,1,1.4c-1.6,0.2-3.3,0.1-5.1-0.4c0,0,6.1-1.7,10.1-8.7c0,0-5.6,4.7-9.3,4.3c0,0,5.1-7,9.7-7.9c0,0-5.5-1.1-9.6,3
			l6.8-6.4l-9.9,3.7c0,0,3.8-2.3,8.2-9.2c0,0-5,3.2-9.1,2.8c0,0,5.2-3.9,6.8-8.1c0,0-5.3,5.1-7.7,3.8l4.7-4.6h-6.1
			c0,0,2.9-1.2,4.7-4.9c0,0-2.6,1.9-5.1,1.4l3.1-3.1h-3.5c0,0,1.3-1.2,2.3-3.3c0,0-1.6,1.4-3,1.2l-0.5-2.9l-0.8,0.7l-1.1-15l-1.1,15
			l-0.8-0.7l-0.5,2.9c-1.3,0.2-3-1.2-3-1.2c1,2.1,2.3,3.3,2.3,3.3h-3.5l3.1,3.1c-2.6,0.5-5.1-1.4-5.1-1.4c1.8,3.7,4.7,4.9,4.7,4.9
			l-4.6-0.5l3.3,5c-2.4,1.4-8.4-1.5-8.4-1.5c1.6,4.3,7.5,5.9,7.5,5.9c-4,0.4-12.4-2.1-12.4-2.1c4.4,6.9,11.5,8.5,11.5,8.5l-10.5-2.4
			l4.5,3.2c-0.9-0.4-1.9-0.7-2.8-0.9c0.1-0.2,0.2-0.5,0.3-0.7c0,0-0.3,0.3-0.7,0.7c-2.4-0.4-4.3-0.2-4.3-0.2c1,0.2,2,0.7,3,1.3
			c-2.3,1.8-5.8,4.2-7.8,3l6-5.9h-7.7c0,0,3.7-1.6,6-6.3c0,0-3.3,2.4-6.6,1.8l4-3.9h-4.5c0,0,1.7-1.6,2.9-4.2c0,0-2.1,1.8-3.8,1.5
			l-0.7-3.8l-1.1,0.9l-1.4-19.2l-1.4,19.2l-1.1-0.9l-0.7,3.8c-1.7,0.3-3.8-1.5-3.8-1.5c1.2,2.7,2.9,4.2,2.9,4.2h-4.5l4,3.9
			c-3.3,0.7-6.6-1.8-6.6-1.8c2.4,4.7,6,6.3,6,6.3l-5.9-0.6l4.2,6.5c-3,1.8-10.7-1.9-10.7-1.9c2.1,5.5,9.6,7.5,9.6,7.5
			c-5.2,0.5-15.9-2.6-15.9-2.6c0.5,0.8,1,1.5,1.5,2.1c-1.5,1.2-5.8,4.1-8.8,3.8c0,0,5.1-7,9.7-7.9c0,0-5.5-1.1-9.6,3l6.8-6.4
			l-9.8,3.7c0,0,3.8-2.3,8.2-9.2c0,0-5,3.2-9.1,2.8c0,0,5.2-3.9,6.8-8.1c0,0-5.3,5.1-7.7,3.8l4.7-4.6h-6.1c0,0,2.9-1.2,4.7-4.9
			c0,0-2.6,1.9-5.1,1.4l3.1-3h-3.5c0,0,1.3-1.2,2.3-3.3c0,0-1.6,1.4-3,1.2l-0.5-2.9l-0.8,0.7l-1.1-15l-1.1,15l-0.8-0.7l-0.5,2.9
			c-1.3,0.2-3-1.2-3-1.2c1,2.1,2.3,3.3,2.3,3.3h-3.5l3.1,3c-2.6,0.5-5.1-1.4-5.1-1.4c1.8,3.7,4.7,4.9,4.7,4.9l-4.6-0.5l3.3,5
			c-2.4,1.4-8.4-1.5-8.4-1.5c1.6,4.3,7.5,5.9,7.5,5.9c-4,0.4-12.4-2.1-12.4-2.1c4.4,6.9,11.5,8.5,11.5,8.5l-10.9-2.3l4.5,3.2
			c-3.6-1.7-7.5-1.2-7.5-1.2c1.5,0.3,3.2,1.3,4.7,2.5c0,0-7.1-1.4-12.3,3.8l8.7-8.2l-12.6,4.7c0,0,4.9-3,10.5-11.8
			c0,0-6.5,4.1-11.6,3.6c0,0,6.6-4.9,8.7-10.4c0,0-6.8,6.6-9.8,4.8l6-5.9h-7.7c0,0,3.7-1.6,6-6.3c0,0-3.3,2.4-6.6,1.8l4-3.9h-4.5
			c0,0,1.7-1.6,2.9-4.3c0,0-2.1,1.8-3.8,1.5l-0.7-3.8l-1.1,0.9l-1.4-19.2l-1.4,19.2l-1.1-0.9l-0.7,3.8c-1.7,0.3-3.8-1.5-3.8-1.5
			c1.2,2.7,2.9,4.3,2.9,4.3h-4.5l4,3.9c-3.3,0.7-6.6-1.8-6.6-1.8c2.4,4.7,6,6.3,6,6.3l-5.9-0.6l1.4,2.1c-0.9,0.8-2.9,2.5-5,3.6
			c-1.2-0.4-2.1-0.8-2.6-1l4.2-4.1h-7.7c0,0,3.7-1.6,6-6.3c0,0-3.3,2.4-6.6,1.8l4-3.9h-4.5c0,0,1.7-1.6,2.9-4.3c0,0-2.1,1.8-3.8,1.5
			l-0.7-3.8l-1,0.9l-1.4-19.2l-1.4,19.2l-1-0.9l-0.7,3.8c-1.7,0.3-3.8-1.5-3.8-1.5c1.2,2.7,2.9,4.3,2.9,4.3h-4.5l4,3.9
			c-3.3,0.7-6.6-1.8-6.6-1.8c2.4,4.7,6,6.3,6,6.3l-5.9-0.6l4.2,6.5c-3,1.8-10.7-1.9-10.7-1.9c2.1,5.5,9.6,7.5,9.6,7.5
			c-5.2,0.5-15.9-2.6-15.9-2.6c5.6,8.8,14.8,10.8,14.8,10.8l-13.4-3.1l3,2.1c-0.2,0.2-0.5,0.4-0.8,0.7c-1.2-0.3-2.4-0.4-3.3-0.4
			l1.5-1.5h-6.1c0,0,2.9-1.2,4.7-4.9c0,0-2.6,1.9-5.1,1.4l3.1-3h-3.5c0,0,1.3-1.2,2.3-3.3c0,0-1.6,1.4-3,1.2l-0.5-2.9l-0.8,0.7
			l-1.1-15l-1.1,15l-0.8-0.7l-0.5,2.9c-1.3,0.2-3-1.2-3-1.2c1,2.1,2.3,3.3,2.3,3.3h-3.5l3.1,3c-2.6,0.5-5.1-1.4-5.1-1.4
			c1.8,3.7,4.7,4.9,4.7,4.9l-4.6-0.5l3.3,5c-2.4,1.4-8.4-1.5-8.4-1.5c1.6,4.3,7.5,5.9,7.5,5.9c-4,0.4-12.4-2.1-12.4-2.1
			c4.4,6.9,11.5,8.5,11.5,8.5l-10.5-2.4l4.5,3.1c-3.6-1.7-7.5-1.2-7.5-1.2c4.6,0.9,10.4,8.1,10.4,8.1c-3.7,0.4-9.3-4.3-9.3-4.3
			c4,7,10.1,8.7,10.1,8.7c-5,1.4-9.9-1.4-12.4-3.3c0.5-0.6,0.9-1.3,1.4-2.1c0,0-1,0.6-2.4,1.3c-0.5-0.4-0.8-0.7-0.8-0.7
			c0.2,0.3,0.4,0.5,0.6,0.8c-1.8,0.8-4.3,1.7-6.5,1.5c0,0,5.2-3.9,6.8-8.1c0,0-5.3,5.1-7.7,3.8l4.7-4.6h-6.1c0,0,2.9-1.2,4.7-4.9
			c0,0-2.6,1.9-5.1,1.4l3.1-3h-3.5c0,0,1.3-1.2,2.3-3.3c0,0-1.6,1.4-3,1.2l-0.5-2.9l-0.8,0.7l-1.1-15l-1.1,15l-0.8-0.7l-0.5,2.9
			c-1.3,0.2-3-1.2-3-1.2c1,2.1,2.3,3.3,2.3,3.3h-3.5l3.1,3c-2.6,0.5-5.1-1.4-5.1-1.4c1.8,3.7,4.7,4.9,4.7,4.9l-4.6-0.5l3.3,5
			c-2.4,1.4-8.4-1.5-8.4-1.5c1.6,4.3,7.5,5.9,7.5,5.9c-2.2,0.2-5.6-0.4-8.3-1c-2.3-0.5-4.1-1-4.1-1c0.5,0.8,1.1,1.6,1.7,2.3
			c-1.8,0.8-4.4,1.7-6.7,1.5c0,0,5.2-3.9,6.8-8.1c0,0-5.3,5.1-7.7,3.8l4.7-4.6h-6.1c0,0,2.9-1.2,4.7-4.9c0,0-2.6,1.9-5.1,1.4
			l3.1-3.1h-3.5c0,0,1.3-1.2,2.3-3.3c0,0-1.6,1.4-3,1.2l-0.5-2.9l-0.8,0.7l-1.1-15l-1.1,15l-0.8-0.7l-0.5,2.9c-1.3,0.2-3-1.2-3-1.2
			c1,2.1,2.3,3.3,2.3,3.3h-3.5l3.1,3.1c-2.6,0.5-5.1-1.4-5.1-1.4c1.8,3.7,4.7,4.9,4.7,4.9l-4.6-0.5l3.3,5c-2.4,1.4-8.4-1.5-8.4-1.5
			c1.6,4.3,7.5,5.9,7.5,5.9c-4,0.4-12.4-2.1-12.4-2.1c4.4,6.9,11.5,8.5,11.5,8.5l-10.5-2.4l4.5,3.2c-3.6-1.7-7.5-1.2-7.5-1.2
			c4.6,0.9,10.4,8.1,10.4,8.1c-3.7,0.4-9.3-4.3-9.3-4.3c4,7,10.1,8.7,10.1,8.7c-3.6,1-7.1-0.2-9.7-1.6c0.7-0.9,1.5-2,2.2-3.2
			c0,0-1.8,1.2-4.2,2c-1-0.7-1.7-1.3-2.1-1.6c1.5-1.5,3.2-3.5,4-5.7c0,0-5.3,5.1-7.7,3.8l4.7-4.6h-6.1c0,0,2.9-1.2,4.7-4.9
			c0,0-2.6,1.9-5.1,1.4l3.1-3h-3.5c0,0,1.3-1.2,2.3-3.3c0,0-1.6,1.4-3,1.2l-0.5-2.9l-0.8,0.7l-1.1-15l-1.1,15l-1-1l-0.5,2.9
			c-1.3,0.2-3-1.2-3-1.2c1,2.1,2.3,3.3,2.3,3.3h-3.5l3.1,3c-2.6,0.5-5.1-1.4-5.1-1.4c1.8,3.7,4.7,4.9,4.7,4.9l-4.6-0.5l3.3,5
			c-2.4,1.4-8.4-1.5-8.4-1.5c1.6,4.3,7.5,5.9,7.5,5.9c-4,0.4-12.4-2.1-12.4-2.1c4.4,6.9,11.5,8.5,11.5,8.5l-10.5-2.4l4.5,3.2
			c-3.6-1.7-7.5-1.2-7.5-1.2c4.6,0.9,10.4,8.1,10.4,8.1c-3.7,0.4-9.3-4.3-9.3-4.3c4,7,10.1,8.7,10.1,8.7c-7.3,2-14.2-4.8-14.2-4.8
			c4.9,7,14.7,10.9,14.7,10.9c-3.4,1-7.6,1-10.2,0.9c0.3-0.5,0.6-0.9,0.9-1.4c0,0-1,0.6-2.5,1.3c-0.5,0-0.8-0.1-0.8-0.1
			c0.1,0.1,0.2,0.2,0.3,0.3c-2.3,1.1-5.7,2.3-8.6,2c0,0,6.6-4.9,8.7-10.4c0,0-6.8,6.6-9.8,4.8l6-5.9h-7.7c0,0,3.7-1.6,6-6.3
			c0,0-3.3,2.4-6.6,1.8l4-3.9h-4.5c0,0,1.7-1.6,2.9-4.3c0,0-2.1,1.8-3.8,1.5l-0.7-3.8l-1.1,0.9l-1.4-19.2L919,96.3l-1.1-0.9
			l-0.7,3.8c-1.7,0.3-3.8-1.5-3.8-1.5c1.2,2.7,2.9,4.3,2.9,4.3h-4.5l4,3.9c-3.3,0.7-6.6-1.8-6.6-1.8c2.4,4.7,6,6.3,6,6.3l-5.9-0.6
			l4.2,6.5c-3,1.8-10.7-1.9-10.7-1.9c2.1,5.5,9.6,7.5,9.6,7.5c-5.2,0.5-15.9-2.6-15.9-2.6c5.6,8.8,14.8,10.8,14.8,10.8l-13.4-3.1
			l5.8,4c-4.7-2.2-9.6-1.5-9.6-1.5c5.9,1.1,13.3,10.3,13.3,10.3c-4.7,0.5-11.9-5.5-11.9-5.5c1.3,2.3,2.8,4.1,4.2,5.6
			c-0.9,0.8-2.6,2.2-4.4,3.2c-0.9-0.5-1.6-1-2.3-1.5l3.5-3.4h-7.7c0,0,3.7-1.6,6-6.3c0,0-3.3,2.4-6.6,1.8l4-3.9h-4.5
			c0,0,1.7-1.6,2.9-4.3c0,0-2.1,1.8-3.8,1.5l-0.7-3.8l-1,0.9l-1.4-19.2l-1.4,19.2l-1-0.9l-0.7,3.8c-1.7,0.3-3.8-1.5-3.8-1.5
			c1.2,2.7,2.9,4.3,2.9,4.3h-4.5l4,3.9c-3.3,0.7-6.6-1.8-6.6-1.8c2.4,4.7,6,6.3,6,6.3l-5.9-0.6l4.2,6.5c-3,1.8-10.7-1.9-10.7-1.9
			c2.1,5.5,9.6,7.5,9.6,7.5c-5.2,0.5-15.9-2.6-15.9-2.6c5.6,8.8,14.8,10.8,14.8,10.8l-13.4-3.1l5.8,4c-3.2-1.5-6.5-1.7-8.3-1.6
			c1.1-1.4,2.2-2.9,3.4-4.8c0,0-6.5,4.1-11.6,3.6c0,0,6.6-4.9,8.7-10.4c0,0-6.8,6.6-9.8,4.8l6-5.9h-7.7c0,0,3.7-1.6,6-6.3
			c0,0-3.3,2.4-6.6,1.8l4-3.9h-4.5c0,0,1.7-1.6,2.9-4.3c0,0-2.1,1.8-3.8,1.5l-0.7-3.8l-1.1,0.9l-1.4-19.2l-1.4,19.2l-1.1-0.9
			l-0.7,3.8c-1.7,0.3-3.8-1.5-3.8-1.5c1.2,2.7,2.9,4.3,2.9,4.3h-4.3l4,3.9c-3.3,0.7-6.6-1.8-6.6-1.8c2.4,4.7,6,6.3,6,6.3l-5.9-0.6
			l4.2,6.5c-3,1.8-10.7-1.9-10.7-1.9c2.1,5.5,9.6,7.5,9.6,7.5c-5.2,0.5-15.9-2.6-15.9-2.6c5.6,8.8,14.8,10.8,14.8,10.8l-13.4-3.1
			l5.8,4c-4.7-2.2-9.6-1.5-9.6-1.5c5.9,1.1,13.3,10.3,13.3,10.3c-4.7,0.5-11.9-5.5-11.9-5.5c5.1,9,12.9,11.2,12.9,11.2
			c-9.3,2.5-18.2-6.1-18.2-6.1c6.3,9,18.8,14,18.8,14c-6.7,1.9-16.1,1-16.1,1c3.2,4.3,8.8,4.7,12,4.5c-0.4,0.3-0.9,0.6-1.4,0.9
			c-7.7,1.6-15.8-1.9-15.8-1.9c2.5,3.1,6.2,5,9.4,6.2c-0.4,0.3-0.8,0.5-1.2,0.8c-2.3-0.6-4.4-1.3-6.2-2c0.4-0.6,0.8-1.2,1-1.9
			c0,0-0.8,0.8-1.9,1.6c-0.8-0.3-1.5-0.6-2-0.9l1.4-1.4h-5.1c0,0,2.4-1,3.9-4.1c0,0-2.1,1.6-4.3,1.1l2.6-2.5h-3c0,0,1.1-1,1.9-2.8
			c0,0-1.4,1.2-2.5,1l-0.4-2.5l-0.7,0.6l-0.9-12.5l-0.9,12.5l-0.7-0.6l-0.4,2.5c-1.1,0.2-2.5-1-2.5-1c0.8,1.7,1.9,2.8,1.9,2.8h-3
			l2.6,2.5c-2.1,0.4-4.3-1.1-4.3-1.1c1.5,3.1,3.9,4.1,3.9,4.1l-3.9-0.4l2.7,4.2c-2,1.2-7-1.2-7-1.2c1.4,3.6,6.3,4.9,6.3,4.9
			c-3.4,0.3-10.4-1.7-10.4-1.7c3.7,5.8,9.6,7.1,9.6,7.1l-8.7-2l3.8,2.6c-3-1.4-6.2-1-6.2-1c2.7,0.5,5.8,3.5,7.5,5.3
			c-0.6,0.2-1.3,0.5-1.9,0.7c-2.4-1.1-4.7-2.9-4.7-2.9c0.8,1.5,1.8,2.7,2.7,3.6c-1.3,0.5-2.7,0.9-4.1,1.4c-1.3-0.9-2.1-1.7-2.1-1.7
			c0.5,0.7,1,1.3,1.5,1.9c-2.9,0.9-5.9,1.8-8.8,2.5c1.3-1.2,3.1-3.2,5.2-6.3c0,0-4.2,2.7-7.6,2.4c0,0,4.3-3.2,5.7-6.8
			c0,0-4.5,4.3-6.4,3.1l3.9-3.8h-5.1c0,0,2.4-1,3.9-4.1c0,0-2.1,1.6-4.3,1.1l2.6-2.5h-3c0,0,1.1-1,1.9-2.8c0,0-1.4,1.2-2.5,1
			l-0.4-2.5l-0.7,0.6l-0.9-12.5l-0.9,12.5l-0.7-0.6l-0.4,2.5c-1.1,0.2-2.5-1-2.5-1c0.8,1.7,1.9,2.8,1.9,2.8h-3l2.6,2.5
			c-2.1,0.4-4.3-1.1-4.3-1.1c1.5,3.1,3.9,4.1,3.9,4.1l-3.9-0.4l2.7,4.2c-2,1.2-7-1.2-7-1.2c1.4,3.6,6.3,4.9,6.3,4.9
			c-3.4,0.3-10.4-1.7-10.4-1.7c3.7,5.8,9.6,7.1,9.6,7.1l-8.7-2l3.8,2.6c-3-1.4-6.2-1-6.2-1c3,0.6,4.7,4.2,7.4,5.7
			c0.9,0.5,7.3,5.1,7.6,5c-6.8,1.3-13.6,2.4-20.5,3.4c-1.5,0.2-3,0.4-4.4,0.2c-1.2-0.2-2.4-0.7-3.6-1.1c-2.7-1.1-5.5-2.2-8.2-3.3
			c-1.2-0.5-2.5-0.8-3.7-1.2c-0.5-0.2-0.9-0.3-1.2-0.7c-0.1-0.2-0.4-1.1-0.4-1.2c-1.1-0.6-2.4-0.9-3.6-0.9c0.4-0.3,0.8-0.6,1.2-0.8
			c0.9-0.6,1.9-1.4,2-2.4c-0.6,0.6-1.5,0.8-2.4,0.8c-0.8,0-1.7-0.2-2.5-0.1c1.4-1.4,3.6-2.8,4.6-4.5c0.5-0.8,1.7-3.6,2.9-3.6h-7.7
			c0,0,3.7-1.6,6-6.3c0,0-3.3,2.4-6.6,1.8l4-3.9h-4.5c0,0,1.7-1.6,2.9-4.3c0,0-2.1,1.8-3.8,1.5l-0.7-3.8l-1,0.9l-1.4-19.2l-1.4,19.2
			l-1.1-0.9l-0.7,3.8c-1.7,0.3-3.8-1.5-3.8-1.5c0.6,1.4,1.4,2.4,1.9,3.2c-0.6,0.3-1.4,0.7-2.3,1.1h-1.3l0.3,0.3c-2,0.6-4.4,1-7,0.3
			c0,0,5.1-1.4,8.4-7.3c0,0-4.7,3.9-7.8,3.6c0,0,4.3-5.9,8.1-6.6c0,0-4.6-0.9-8.1,2.5l5.7-5.3l-8.2,3.1c0,0,3.2-2,6.9-7.7
			c0,0-4.2,2.7-7.6,2.4c0,0,4.3-3.2,5.7-6.8c0,0-4.5,4.3-6.4,3.1l3.9-3.8h-5.1c0,0,2.4-1,3.9-4.1c0,0-2.1,1.6-4.3,1.1l2.6-2.5h-3
			c0,0,1.1-1,1.9-2.8c0,0-1.4,1.2-2.5,1l-0.4-2.5l-0.7,0.6l-0.9-12.5l-0.9,12.5l-0.7-0.6l-0.4,2.5c-1.1,0.2-2.5-1-2.5-1
			c0.8,1.7,1.9,2.8,1.9,2.8h-3l2.6,2.5c-2.1,0.4-4.3-1.1-4.3-1.1c1.5,3.1,3.9,4.1,3.9,4.1l-3.9-0.4l2.7,4.2c-2,1.2-7-1.2-7-1.2
			s0,0.1,0.1,0.1c-0.5,0.4-5.8,4.1-11.6,2.5c0,0,5.1-1.4,8.4-7.3c0,0-4.7,3.9-7.8,3.6c0,0,4.3-5.9,8.1-6.6c0,0-4.6-0.9-8.1,2.5
			l5.7-5.3l-8.2,3.1c0,0,3.2-2,6.9-7.7c0,0-4.2,2.7-7.6,2.4c0,0,4.3-3.2,5.7-6.8c0,0-4.5,4.3-6.4,3.1l3.9-3.8h-5.1
			c0,0,2.4-1,3.9-4.1c0,0-2.1,1.6-4.3,1.2l2.6-2.5h-3c0,0,1.1-1,1.9-2.8c0,0-1.4,1.2-2.5,1l-0.4-2.5l-0.7,0.6l-0.9-12.5l-0.9,12.5
			l-0.7-0.6l-0.4,2.5c-1.1,0.2-2.5-1-2.5-1c0.8,1.7,1.9,2.8,1.9,2.8h-3l2.6,2.5c-2.1,0.4-4.3-1.2-4.3-1.2c0.8,1.7,1.9,2.7,2.7,3.3
			c-0.2,0.1-0.5,0.3-0.9,0.6l-1.7-0.2l0.5,0.8c-2.2,1.1-5.7,2.3-9.4,1.2c0,0,5.1-1.4,8.4-7.3c0,0-4.7,3.9-7.8,3.6
			c0,0,4.3-5.9,8.1-6.6c0,0-4.6-0.9-8.1,2.5l5.7-5.3l-8.2,3.1c0,0,3.2-2,6.9-7.7c0,0-4.2,2.7-7.6,2.4c0,0,4.3-3.2,5.7-6.8
			c0,0-4.5,4.3-6.4,3.1l3.9-3.8h-5.1c0,0,2.4-1,3.9-4.1c0,0-2.1,1.6-4.3,1.1l2.6-2.5h-3c0,0,1.1-1,1.9-2.8c0,0-1.4,1.2-2.5,1
			l-0.4-2.5l-0.7,0.6l-0.9-12.5l-0.9,12.5l-0.7-0.6l-0.4,2.5c-1.1,0.2-2.5-1-2.5-1c0.8,1.7,1.9,2.8,1.9,2.8h-3l2.6,2.5
			c-2.1,0.4-4.3-1.1-4.3-1.1c1.5,3.1,3.9,4.1,3.9,4.1l-3.9-0.4l2.7,4.2c-2,1.2-7-1.2-7-1.2c1.4,3.6,6.3,4.9,6.3,4.9
			c-3.4,0.3-10.4-1.7-10.4-1.7c3.7,5.7,9.6,7.1,9.6,7.1l-8.7-2l3.8,2.6c-1.3-0.6-2.6-0.9-3.7-1c0.2-0.2,0.3-0.4,0.5-0.7
			c0,0-0.4,0.3-1.1,0.6c-1.2-0.1-1.9,0-1.9,0c0.4,0.1,0.7,0.2,1.1,0.4c-1.5,0.7-3.7,1.5-5.7,1.3c0,0,4.3-3.2,5.7-6.8
			c0,0-4.5,4.3-6.4,3.1l3.9-3.8h-5.1c0,0,2.4-1,3.9-4.1c0,0-2.1,1.6-4.3,1.1l2.6-2.5h-3c0,0,1.1-1,1.9-2.8c0,0-1.4,1.2-2.5,1
			l-0.4-2.5l-0.7,0.6l-0.9-12.5l-0.9,12.5l-0.7-0.6l-0.4,2.5c-1.1,0.2-2.5-1-2.5-1c0.8,1.7,1.9,2.8,1.9,2.8h-3l2.6,2.5
			c-2.1,0.4-4.3-1.1-4.3-1.1c1.5,3.1,3.9,4.1,3.9,4.1l-3.9-0.4l2.7,4.2c-2,1.2-7-1.2-7-1.2c0.4,0.9,0.9,1.7,1.6,2.3
			c-1.1,0.5-2.5,1.1-4,1.3c-0.6-0.1-1-0.3-1.3-0.3c1.2-1,4.1-3.6,5.1-6.3c0,0-4.5,4.3-6.4,3.1l3.9-3.8h-3.2c0,0,2.4-1,3.9-4.1
			c0,0-2.1,1.6-4.3,1.1l2.6-2.5h-3c0,0,1.1-1,1.9-2.8c0,0-1.4,1.2-2.5,1l-0.4-2.5l-0.7,0.6l-0.9-12.5l-0.9,12.5l-0.7-0.6l-0.4,2.5
			c-1.1,0.2-2.5-1-2.5-1c0.8,1.7,1.9,2.8,1.9,2.8h-3l2.6,2.5c-2.1,0.4-4.3-1.1-4.3-1.1c1.5,3.1,3.9,4.1,3.9,4.1l-3.9-0.4l2.7,4.2
			c-2,1.2-7-1.2-7-1.2c0.2,0.5,0.5,1,0.8,1.5c-2,0.7-5.8,1.7-8.9,0.8c0,0,8-1.8,12.1-7.7c0,0-5.6,4.2-11.7,2.6c0,0,5.1-1.4,8.4-7.3
			c0,0-4.7,3.9-7.8,3.6c0,0,4.3-5.9,8.1-6.6c0,0-4.6-0.9-8.1,2.5l5.7-5.3l-8.2,3.1c0,0,3.2-2,6.9-7.7c0,0-4.2,2.7-7.6,2.4
			c0,0,4.3-3.2,5.7-6.8c0,0-4.5,4.3-6.4,3.1l3.9-3.8H564c0,0,2.4-1,3.9-4.1c0,0-2.1,1.6-4.3,1.1l2.6-2.5h-3c0,0,1.1-1,1.9-2.8
			c0,0-1.4,1.2-2.5,1l-0.4-2.5l-0.7,0.6l-0.9-12.5l-0.9,12.5l-0.7-0.6l-0.4,2.5c-1.1,0.2-2.5-1-2.5-1c0.8,1.7,1.9,2.8,1.9,2.8h-3
			l2.6,2.5c-2.1,0.4-4.3-1.1-4.3-1.1c1.5,3.1,3.9,4.1,3.9,4.1l-3.9-0.4l2.7,4.2c-2,1.2-7-1.2-7-1.2c1.4,3.6,6.3,4.9,6.3,4.9
			c-3.4,0.3-10.4-1.7-10.4-1.7c3.7,5.8,9.6,7.1,9.6,7.1l-8.7-2l3.8,2.6c-3-1.4-6.2-1-6.2-1c3.9,0.7,8.7,6.7,8.7,6.7
			c-3.1,0.3-7.8-3.6-7.8-3.6c0.2,0.3,0.4,0.6,0.5,0.9c-0.9-0.1-4.8-0.5-7.9,2.5l5.7-5.3l-8.2,3.1c0,0,3.2-2,6.9-7.7
			c0,0-4.2,2.7-7.6,2.4c0,0,4.3-3.2,5.7-6.8c0,0-4.5,4.3-6.4,3.1l3.9-3.8h-5.1c0,0,2.4-1,3.9-4.1c0,0-2.1,1.6-4.3,1.1l2.6-2.5h-3
			c0,0,1.1-1,1.9-2.8c0,0-1.4,1.2-2.5,1l-0.4-2.5l-0.7,0.6l-0.9-12.5l-0.9,12.5l-0.7-0.6l-0.4,2.5c-1.1,0.2-2.5-1-2.5-1
			c0.8,1.7,1.9,2.8,1.9,2.8h-3l2.6,2.5c-2.1,0.4-4.3-1.1-4.3-1.1c1.5,3.1,3.9,4.1,3.9,4.1l-3.9-0.4l2.7,4.2c-2,1.2-7-1.2-7-1.2
			c1.4,3.6,6.3,4.9,6.3,4.9c-3.4,0.3-10.4-1.7-10.4-1.7c3.7,5.8,9.6,7.1,9.6,7.1l-8.7-2l3.8,2.6c-1.2-0.6-2.4-0.9-3.5-1l0.1-0.1
			l-0.2,0.1c-1.6-0.2-2.7,0-2.7,0c0.5,0.1,1,0.3,1.4,0.5l-11.2,4.2c0,0,4.9-3,10.5-11.8c0,0-6.5,4.1-11.6,3.6c0,0,6.6-4.9,8.7-10.4
			c0,0-6.8,6.6-9.8,4.8l6-5.9h-6.9c0,0,3.7-1.6,6-6.3c0,0-3.3,2.4-6.6,1.8l4-3.9h-4.4c0,0,1.7-1.6,2.9-4.3c0,0-2.1,1.8-3.8,1.5
			l-0.7-3.8l-1,0.9l-1.4-19.2l-1.4,19.2l-1-0.9l-0.7,3.8c-1.7,0.3-3.8-1.5-3.8-1.5c1.2,2.7,2.9,4.3,2.9,4.3h-4.5l4,3.9
			c-3.3,0.7-6.6-1.8-6.6-1.8c2.4,4.7,6,6.3,6,6.3l-5.9-0.6l4.2,6.5c-0.7,0.4-1.7,0.5-2.8,0.5c0.3-0.4,0.5-0.8,0.7-1.3
			c0,0-0.8,0.6-2.1,1.1c-1-0.2-2.1-0.5-3-0.8l2.6-2.5h-4.5c0,0,1.7-1.6,2.9-4.3c0,0-2.1,1.8-3.8,1.5l-0.7-3.8l-1.1,0.9l-1.4-19.2
			l-1.4,19.2l-1-0.9l-0.4,2.5c-0.3,0.2-1,0.6-1.9,1c-1.2-0.4-2.1-1.3-2.1-1.3c0.3,0.7,0.7,1.3,1,1.8c-2.3,1.1-5.6,2.2-8.4,1.9
			c0,0,6.6-4.9,8.7-10.4c0,0-6.8,6.6-9.8,4.8l6-5.9h-7.7c0,0,3.7-1.6,6-6.3c0,0-3.3,2.4-6.6,1.8l4-3.9h-4.5c0,0,1.7-1.6,2.9-4.3
			c0,0-2.1,1.8-3.8,1.5l-0.7-3.8l-1,0.9l-1.4-19.2l-1.4,19.2l-1-0.9l-0.7,3.8c-1.7,0.3-3.8-1.5-3.8-1.5c1.2,2.7,2.9,4.3,2.9,4.3
			h-4.5l4,3.9c-3.3,0.7-6.6-1.8-6.6-1.8c2.4,4.7,6,6.3,6,6.3l-2.6-0.3c0-0.1,0.1-0.1,0.1-0.2c0,0-0.1,0.1-0.3,0.2l-3.1-0.3l0.9,1.4
			c-1.2,0.4-2.6,0.8-4.1,0.5l4-3.9h-4.5c0,0,1.7-1.6,2.9-4.3c0,0-2.1,1.8-3.8,1.5l-0.7-3.8l-1,0.9l-1.4-19.2l-1.4,19.2l-1-0.9
			l-0.7,3.8c-1.7,0.3-3.8-1.5-3.8-1.5c1.2,2.7,2.9,4.3,2.9,4.3h-4.5l4,3.9c-2.2,0.4-4.5-0.5-5.7-1.2c0.2-0.3,0.3-0.5,0.5-0.8
			c0,0-0.4,0.2-0.9,0.6c-0.3-0.2-0.5-0.3-0.5-0.3c0.1,0.2,0.2,0.3,0.3,0.4c-2.1,1.1-6.6,3.3-10.5,2.9c0,0,6.6-4.9,8.7-10.4
			c0,0-6.8,6.6-9.8,4.8l6-5.9h-7.7c0,0,3.7-1.6,6-6.3c0,0-3.3,2.4-6.6,1.8l4-3.9h-4.5c0,0,1.7-1.6,2.9-4.3c0,0-2.1,1.8-3.8,1.5
			l-0.7-3.8l-1.1,0.9l-1.4-19.2l-1.4,19.2l-1.1-0.9l-0.7,3.8c-1.7,0.3-3.8-1.5-3.8-1.5c1.2,2.7,2.9,4.3,2.9,4.3h-4.5l4,3.9
			c-3.3,0.7-6.6-1.8-6.6-1.8c2.4,4.7,6,6.3,6,6.3l-5.9-0.6l4.2,6.5c-3,1.8-10.7-1.9-10.7-1.9c2.1,5.5,9.6,7.5,9.6,7.5
			c-1.4,0.1-3.3,0-5.2-0.3c0-0.1,0.1-0.2,0.1-0.3c0,0-0.1,0.1-0.3,0.2c-1.3-0.2-2.6-0.4-3.9-0.7l-0.3-1.8l-1.1,0.9l-1.4-19.2
			l-1.4,19.1c-0.1,0-0.1,0-0.2-0.1l-0.8-0.8l-0.1,0.5c-0.8-0.2-1.3-0.3-1.3-0.3c0.3,0.4,0.6,0.8,0.9,1.2c-0.5,0.4-1.3,1.2-2.3,1.9
			c-0.9-0.5-1.6-1.1-1.6-1.1c0.3,0.6,0.6,1.1,0.9,1.6c-2.1,1.5-4.7,2.8-6.3,1.9l6-5.9h-7.7c0,0,3.7-1.6,6-6.3c0,0-3.3,2.4-6.6,1.8
			l4-3.9H368c0,0,1.7-1.6,2.9-4.3c0,0-2.1,1.8-3.8,1.5l-0.7-3.8l-1.1,0.9l-1.4-19.2l-1.4,19.2l-1.1-0.9l-0.7,3.8
			c-1.7,0.3-3.8-1.5-3.8-1.5c1.2,2.7,2.9,4.3,2.9,4.3h-4.1c0.3-0.5,0.7-1.1,0.9-1.7c0,0-4.5,4.3-6.4,3.1l3.9-3.8H349
			c0,0,2.4-1,3.9-4.1c0,0-2.1,1.6-4.3,1.1l2.6-2.5h-3c0,0,1.1-1,1.9-2.8c0,0-1.4,1.2-2.5,1l-0.4-2.5l-0.7,0.6l-0.9-12.5l-0.9,12.5
			l-0.7-0.6l-0.4,2.5c-1.1,0.2-2.5-1-2.5-1c0.8,1.7,1.9,2.8,1.9,2.8h-3l2.6,2.5c-2.1,0.4-4.3-1.1-4.3-1.1c1.1,2.1,2.5,3.3,3.4,3.8
			c-0.1,0.1-0.3,0.1-0.4,0.2l-2.9-0.3l0.9,1.3c-1.4,0.6-3.1,1.3-5,1.7c-0.1,0-0.1-0.1-0.1-0.1v0.1c-1.2,0.3-2.4,0.4-3.6,0.3
			c0,0,6.6-4.9,8.7-10.4c0,0-6.8,6.6-9.8,4.8l6-5.9h-7.7c0,0,3.7-1.6,6-6.3c0,0-3.3,2.4-6.6,1.8l4-3.9h-4.5c0,0,1.7-1.6,2.9-4.3
			c0,0-2.1,1.8-3.8,1.5l-0.7-3.8l-1,0.9l-1.4-19.2l-1.4,19.2l-1-0.9l-1.1,4.2c-1.7,0.3-3.8-1.5-3.8-1.5c1.2,2.7,2.9,4.3,2.9,4.3
			h-4.5l4,3.9c-3.3,0.7-6.6-1.8-6.6-1.8c2.4,4.7,6,6.3,6,6.3l-5.9-0.6l4.2,6.5c-3,1.8-10.7-1.9-10.7-1.9c2.1,5.5,9.6,7.5,9.6,7.5
			c-4.1,0.4-11.7-1.5-14.7-2.3c-0.7-0.2-1.2-0.3-1.2-0.3c0.2,0.3,0.4,0.5,0.5,0.8c-1.1,0.7-3.5,1.8-5.9,1.3l4-3.9h-4.5
			c0,0,1.7-1.6,2.9-4.3c0,0-2.1,1.8-3.8,1.5l-0.7-3.8l-1,0.9l-1.4-19.2l-1.4,19.2l-1.1-0.9l-0.7,3.8c-1.7,0.3-3.8-1.5-3.8-1.5
			c1.2,2.7,2.9,4.3,2.9,4.3H280l4,3.9c-2.3,0.5-4.6-0.6-5.8-1.3c0.3-0.4,0.5-0.8,0.8-1.3c0,0-0.6,0.4-1.5,0.8
			c-0.8,0.3-1.8,0.5-2.8,0.3l2.6-2.5h-3c0,0,1.1-1,1.9-2.8c0,0-1.4,1.2-2.5,1l-0.4-2.5l-0.7,0.6l-0.9-12.5l-0.9,12.5l-0.7-0.6
			l-0.4,2.5c-1.1,0.2-2.5-1-2.5-1c0.8,1.7,1.9,2.8,1.9,2.8h-3l2.6,2.5c-2.1,0.4-4.3-1.1-4.3-1.1c0.2,0.4,0.4,0.7,0.6,1
			c-2.3-0.1-7.2,0.1-11,3.9l8.7-8.2l-12.6,4.7c0,0,4.9-3,10.5-11.8c0,0-6.5,4.1-11.6,3.6c0,0,6.6-4.9,8.7-10.4c0,0-6.8,6.6-9.8,4.8
			l6-5.9h-7.7c0,0,3.7-1.6,6-6.3c0,0-3.3,2.4-6.6,1.8l4-3.9h-4.5c0,0,1.7-1.6,2.9-4.3c0,0-2.1,1.8-3.8,1.5l-0.7-3.8l-1.1,0.9
			L241,56.9l-1.4,19.2l-1.1-0.9l-0.7,3.8c-1.7,0.3-3.8-1.5-3.8-1.5c1.2,2.7,2.9,4.3,2.9,4.3h-4.5l4,3.9c-3.3,0.7-6.6-1.8-6.6-1.8
			c2.4,4.7,6,6.3,6,6.3l-5.9-0.6l4.2,6.5c-1.9,1.1-5.5,0.1-8-0.8c-0.9-0.3-1.7-0.7-2.2-0.9c0.4-0.5,0.8-1.1,1.1-1.9
			c0,0-1.4,1.2-2.5,1l-0.4-2.5l-0.7,0.6l-0.9-12.5l-0.9,12.5l-0.7-0.6l-0.4,2.5c-1.1,0.2-2.5-1-2.5-1c0.8,1.7,1.9,2.8,1.9,2.8h-3
			l2.6,2.5c-2.1,0.4-4.3-1.1-4.3-1.1c1.5,3.1,3.9,4.1,3.9,4.1l-3.9-0.4l2.7,4.2c-0.7,0.4-1.9,0.4-3.1,0.1l1-1l-2,0.7
			c-1.2-0.3-2.2-0.8-2.7-1c1-1.1,2.1-2.5,3.3-4.4c0,0-4.2,2.7-7.6,2.4c0,0,4.3-3.2,5.7-6.8c0,0-4.5,4.3-6.4,3.1l3.9-3.8h-4.8
			c0,0,2.4-1,3.9-4.1c0,0-2.1,1.6-4.3,1.1l2.6-2.5h-3c0,0,1.1-1,1.9-2.8c0,0-1.4,1.2-2.5,1l-0.4-2.5l-0.7,0.6l-0.9-12.5l-0.9,12.5
			l-0.7-0.6l-0.4,2.5c-1.1,0.2-2.5-1-2.5-1c0.8,1.7,1.9,2.8,1.9,2.8h-3l2.6,2.5c-2.1,0.4-4.3-1.1-4.3-1.1c1.5,3.1,3.9,4.1,3.9,4.1
			l-3.9-0.4l2.7,4.2c-2,1.2-7-1.2-7-1.2c1.4,3.6,6.3,4.9,6.3,4.9c-2.6,0.2-7.2-0.9-9.3-1.5H185c-0.6-0.2-1-0.3-1-0.3
			c0.1,0.1,0.1,0.2,0.2,0.3h-6.8c0,0,3.7-1.6,6-6.3c0,0-3.3,2.4-6.6,1.8l4-3.9h-4.5c0,0,1.7-1.6,2.9-4.3c0,0-2.1,1.8-3.8,1.5
			l-0.7-3.8l-1,0.9l-1.4-19.2l-1.4,19.2l-1.1-0.9l-0.7,3.8c-1.7,0.3-3.8-1.5-3.8-1.5c1.2,2.7,2.9,4.3,2.9,4.3h-4.5l4,3.9
			c-2.7,0.5-5.4-1-6.3-1.6c0.1-0.1,0.1-0.2,0.2-0.4c0,0-0.1,0.1-0.3,0.3c-0.1-0.1-0.2-0.1-0.2-0.1c0,0.1,0.1,0.1,0.1,0.2
			c-1.1,1-4.4,3.8-6.1,2.8l3.9-3.8h-5.1c0,0,2.4-1,3.9-4.1c0,0-1.6,1.1-3.4,1.2c2.3-1.6,4.6-3.7,6.3-6.2c0,0-3,2.3-7.4,3.6h-0.2
			c0,0,1.1-1,1.9-2.8c0,0-1.4,1.2-2.5,1l-0.4-2.5l-0.7,0.6l-0.1-1.4c1.5-1.5,3.1-3.4,4.5-5.8c0,0-2,1.7-4.6,3.2l-0.4-4.9
			c1.8-1.4,3.7-2.5,5.5-2.8c0,0-2.6-0.5-5.7,0.2l-0.1-1l-0.1,1c-2.1,0.5-4.4,1.5-6.4,3.5l8.7-8.2l-12.6,4.7c0,0,4.9-3,10.5-11.8
			c0,0-6.5,4.1-11.6,3.6c0,0,6.6-4.9,8.7-10.4c0,0-6.8,6.6-9.8,4.8l6-5.9h-7.7c0,0,3.7-1.6,6-6.3c0,0-3.3,2.4-6.6,1.8l4-3.9h-4.5
			c0,0,1.7-1.6,2.9-4.3c0,0-2.1,1.8-3.8,1.5l-0.7-3.8l-1.1,0.9L131,19.1l-1.4,19.2l-1.1-0.9l-0.7,3.8c-1.7,0.3-3.8-1.5-3.8-1.5
			c1.2,2.7,2.9,4.3,2.9,4.3h-4.5l4,3.9c-3.3,0.7-6.6-1.8-6.6-1.8c2.4,4.7,6,6.3,6,6.3l-5.9-0.6l4.2,6.5c-3,1.8-10.7-1.9-10.7-1.9
			c2.1,5.5,9.6,7.5,9.6,7.5c-2.4,0.2-6-0.3-9.1-1c0.4-0.7,0.9-1.3,1.1-2c0,0-1,0.9-2.2,1.8c-0.8-0.2-1.6-0.4-2.3-0.5l2-2h-5.1
			c0,0,2.4-1,3.9-4.1c0,0-2.1,1.6-4.3,1.1l2.6-2.5h-3c0,0,1.1-1,1.9-2.8c0,0-1.4,1.2-2.5,1l-0.4-2.5l-0.7,0.6L104,38.5L103.1,51
			l-0.7-0.6l-0.4,2.5c-1.1,0.2-2.5-1-2.5-1c0.8,1.7,1.9,2.8,1.9,2.8h-3l2.6,2.5c-2.1,0.4-4.3-1.1-4.3-1.1c1.5,3.1,3.9,4.1,3.9,4.1
			l-3.9-0.4l2,3.1c-0.3,0.3-0.9,0.8-1.6,1.4c-1.3-0.2-2.7-0.7-3.6-1l1.7-1.7h-7c0,0,3.7-1.6,6-6.3c0,0-3.3,2.4-6.6,1.8l4-3.9h-4.5
			c0,0,1.7-1.6,2.9-4.3c0,0-2.1,1.8-3.8,1.5l-0.7-3.8l-1.1,0.9L83,28.3l-1.4,19.2l-1.1-0.9l-0.7,3.8c-1.7,0.3-3.8-1.5-3.8-1.5
			c1.2,2.7,2.9,4.3,2.9,4.3h-4.5l4,3.9c-3.3,0.7-6.6-1.8-6.6-1.8c2.4,4.7,6,6.3,6,6.3L71.9,61l4.2,6.5c-1.7,1-5,0.3-7.4-0.6
			c0.8-0.8,1.5-1.6,2.1-2.5c0,0-1.3,1-3.5,2c-1.1-0.4-1.9-0.8-1.9-0.8c0.2,0.5,0.4,0.9,0.7,1.4c-3.4,1.4-8.1,2.7-13.2,1.3
			c0,0,7.7-2.2,12.9-11.2c0,0-7.2,6-11.9,5.5c0,0,6.6-9,12.5-10.1c0,0-7.1-1.4-12.3,3.8l8.7-8.2L50.2,53c0,0,4.9-3,10.5-11.8
			c0,0-6.5,4.1-11.6,3.6c0,0,6.6-4.9,8.7-10.4c0,0-6.8,6.6-9.8,4.8l6-5.9h-7.8c0,0,3.7-1.6,6-6.3c0,0-3.3,2.4-6.6,1.8l4-3.9h-4.4
			c0,0,1.7-1.6,2.9-4.3c0,0-2.1,1.8-3.8,1.5l-0.7-3.8l-1.1,0.9L41.1,0l-1.4,19.2l-1-0.9L38,22.1c-1.7,0.3-3.8-1.5-3.8-1.5
			c1.2,2.7,2.9,4.3,2.9,4.3h-4.5l4,3.9C33.3,29.5,30,27,30,27c2.4,4.7,6,6.3,6,6.3l-5.9-0.6l4.2,6.5c-3,1.8-10.7-1.9-10.7-1.9
			c2.1,5.5,9.6,7.5,9.6,7.5c-5.2,0.5-15.9-2.6-15.9-2.6C22.9,51,32.1,53,32.1,53l-13.4-3.1l5.8,4c-4.6-2.2-9.6-1.5-9.6-1.5
			c5.9,1.1,13.3,10.3,13.3,10.3c-4.7,0.5-11.9-5.5-11.9-5.5c5.1,9,12.9,11.2,12.9,11.2C19.9,70.9,11,62.3,11,62.3
			c6.3,9,18.8,14,18.8,14c-6.7,1.9-16.1,1-16.1,1c4.7,6.3,14.5,4.2,14.5,4.2c-8.7,4.1-19.6-0.6-19.6-0.6c5.3,6.5,15.8,8,15.8,8
			c-8.9,0-18.6-5.1-18.6-5.1c1.4,2.1,4.2,4.3,6.9,6.1v2.2L8,91l4.6,4.1v0.8C8.1,95.2,5,93.2,5,93.2c1.9,4.1,4.7,6.9,7.5,8.8v1.6
			C7.2,101,1.9,96.9,1.9,96.9c0.9,2.6,5.8,6.3,10.6,9.5l-0.1,3.8c-2.8-1.6-4.6-3.3-4.6-3.3c1.2,1.8,2.9,3.7,4.5,5.4l-0.1,3.4
			l-6.7-1.9l6.6,3.6l0.1,4.5c-5.4-1.2-10.4-2.8-10.4-2.8c1.8,2.1,6.8,4.7,10.3,6.4v1.3C4.9,125.9,0,123.5,0,123.5
			c1.7,2.5,7.1,4.9,12.1,6.8l-2,130.1c10.8,0,21.6,0,32.4,0c28.2,0,56.4,0,84.5,0c39.3,0,78.7,0,118,0c44.2,0,88.5,0,132.7,0
			c42.9,0,85.8,0,128.7,0c35.3,0,70.6,0,106,0c22.4,0,45.7,1.6,67.9-0.9c19.8-2.2,40.3-1.7,60.3-2.8c17.3-0.9,36.9-4.8,54-1.5
			c11.1,2.2,20.7,5.1,32.3,5.1c15.1,0,30.2,0,45.3,0c40.9,0,81.9,0,122.8,0c47.7,0,95.3,0,143,0c45.3,0,90.7,0,136,0
			c34,0,67.9,0,101.9,0C1389.3,260.4,1402.9,260.4,1416.4,260.4z M813.4,202.6c0.3-0.4,0.6-0.8,0.9-1.2c0.2,0.1,0.4,0.2,0.5,0.4
			C814.4,202.1,813.9,202.4,813.4,202.6z M860,164.1c0.2,0.3,0.4,0.6,0.7,0.9c-1.6,0.6-3.4,1.5-4.9,3.1L860,164.1z M860.5,163.6
			l3.1-2.9c1.4,1.1,2.8,2.3,4,3.5c-1-0.1-3.1-0.2-5.6,0.4C861.4,164.3,860.9,163.9,860.5,163.6z M857.6,172c0.6,0.6,1.3,1.2,1.9,1.7
			c-1.3,0.5-2.7,0.8-3.9,0.7C855.7,174.4,856.4,173.4,857.6,172z M858.4,171.1c1.1-1.2,2.5-2.6,4.1-3.8c1.1,1.2,2.2,2.2,3.3,3
			c-1.1,0.7-2.5,1.7-4,2.5C860.6,172.2,859.4,171.7,858.4,171.1z M896.3,146c1.1,0.9,2.2,1.7,3.3,2.5c-2.3,1-5.2,1.9-7.8,1.6
			C891.8,150.1,894.1,148.5,896.3,146z M895,156.7c0.3,0.2,0.5,0.4,0.8,0.5l-2.9,1.1C893,158.3,893.7,157.8,895,156.7z M900,158.9
			c0.3,0.1,0.6,0.1,0.9,0.2c-0.9,0.4-1.7,0.9-2.6,1.5h-0.1L900,158.9z M935.3,125.1c1.1,0.8,2.3,1.4,3.4,1.9l-1.6,0.6
			c-1.1-0.4-2.2-0.7-3.1-1.1C934.4,126.1,934.9,125.6,935.3,125.1z M940.2,127.6c2.7,1,5,1.4,5,1.4c-1.9,0-3.8-0.3-5.6-0.7
			L940.2,127.6z M968.3,103.7l5.5-5.2c1.3,0.9,2.5,1.6,3.5,2.2C975.9,100.5,971.6,100.4,968.3,103.7z M971,105.3
			c1,0.6,2.1,1,3.2,1.3c-0.8,0.5-1.6,0.9-2.4,1.2c-0.9-0.1-1.8-0.2-2.6-0.4C969.6,106.9,970.2,106.1,971,105.3z M1008.5,88.6
			c-0.5,0.3-1,0.7-1.6,1.1c-1.1-0.4-2.2-1-3.1-1.6c0.7-0.7,1.5-1.4,2.3-2C1007,87,1007.9,87.9,1008.5,88.6z M1008.9,89
			c0.7,0.8,1.1,1.3,1.1,1.3c-0.6,0.1-1.2,0-1.9-0.2C1008.4,89.8,1008.6,89.4,1008.9,89z M1004.4,84.7c-1,0.4-2.1,0.9-3.1,1.7l0,0
			l2.4-2.3C1003.9,84.3,1004.1,84.5,1004.4,84.7z M1005.2,82.7l0.4-0.3l1.5,1.1C1006.4,83.1,1005.8,82.9,1005.2,82.7z M1001,86.6
			L1001,86.6c-0.2,0.2-0.4,0.4-0.6,0.6L1001,86.6z M1002.8,89.1c0.6,0.7,1.2,1.3,1.8,1.9c-1.5,0.7-3,1.2-4.3,1.1
			C1000.3,92.1,1001.3,90.7,1002.8,89.1z M1006.2,92.3c2.5,1.8,4.5,2.4,4.5,2.4c-2.4,0.7-4.8,0.3-6.9-0.4
			C1004.5,93.8,1005.4,93.1,1006.2,92.3z M1030.9,89.2c0.3,0.3,0.6,0.6,0.9,0.9c-0.6,0.1-1.2,0.2-1.8,0.2
			C1030.1,90.3,1030.4,89.9,1030.9,89.2z M1034.4,91.9c1.6,0.9,3.3,1.6,4.7,2c-0.3,0.1-0.7,0.3-1.1,0.4c-1.8-0.4-3.5-0.9-5-1.4
			C1033.5,92.6,1033.9,92.3,1034.4,91.9z M1045.6,89c-3,1.4-6.4,1.5-9.3,1.1c0.5-0.5,1-1.1,1.5-1.7C1041.5,89.9,1045.6,89,1045.6,89
			z M1063.6,58.9c0.3,0.4,0.6,0.9,0.9,1.3c-0.9,0.2-1.8,0.3-2.6,0.2C1061.9,60.4,1062.6,59.8,1063.6,58.9z M1064,58.6
			c0.9-0.8,1.9-1.9,2.8-3.1c1.1,0.8,2.2,1.7,3.2,2.6c-1,0.5-2.5,1.3-4.2,1.8C1065.1,59.4,1064.4,58.9,1064,58.6z M1066.8,63
			c0.6,0.6,1.1,1.1,1.7,1.6l-5.6,2.1l0,0C1063.3,66.4,1064.8,65.3,1066.8,63z M1099.4,42.2c1,0.8,2.2,1.5,3.2,2
			c-0.9,0.3-1.8,0.6-2.7,0.9c-1-0.2-2-0.3-2.9-0.5C1097.5,43.9,1098.4,43.1,1099.4,42.2z M1105.7,45.4c-0.3,0-0.6,0-0.9,0
			c0.1-0.1,0.1-0.2,0.2-0.3C1105.4,45.3,1105.7,45.4,1105.7,45.4z M1104.6,53.6L1104.6,53.6L1104.6,53.6
			C1104.5,53.6,1104.6,53.6,1104.6,53.6z M1135.6,72.3c3.9,2.4,9.1,1.3,9.1,1.3c-4.2,2-9.2,1.3-12.3,0.5
			C1133.4,73.5,1134.5,72.9,1135.6,72.3z M1176.1,62.5l3.1,2.1c-1.4-0.6-2.7-1.1-4-1.3C1175.5,63.1,1175.8,62.8,1176.1,62.5z
			 M1182.9,73.5c-1.2,0.1-2.6-0.2-3.9-0.7c0.6-0.6,1.2-1.2,1.8-1.8C1182.1,72.5,1182.9,73.5,1182.9,73.5z M1210,59
			c0.9,0.7,1.7,1.3,2.6,1.8l-7.7,2.9C1204.9,63.7,1207,62.4,1210,59z M1253,65.6l-5.5-1.3c0.3-0.2,0.5-0.5,0.7-0.7
			C1250.9,65.1,1253,65.6,1253,65.6z M1301.9,54.8c-0.5,0.3-1.2,0.4-1.9,0.4l1.3-1.3L1301.9,54.8z M1297.5,54.8
			c-0.7-0.2-1.4-0.4-2-0.7c1-1,2.1-2.3,3.4-4l2.2,3.3L1297.5,54.8z M1297.4,57.6c0.1,0.1,0.2,0.1,0.3,0.2c-0.5,0.3-1.1,0.7-1.6,1.1
			l0,0L1297.4,57.6z M1318.5,67.2C1318.6,67.2,1318.6,67.3,1318.5,67.2c-0.3,0.4-0.7,0.7-1.1,1.1L1318.5,67.2z M1345.4,66.9l2.6,1.8
			l-0.3,0.1c-1.1-0.4-2.2-0.7-3.2-0.8C1344.8,67.7,1345.1,67.3,1345.4,66.9z M1251.2,83.8c-0.7,0.2-1.4,0.3-2.1,0.5
			c0.4-0.3,0.8-0.5,1.2-0.8C1250.9,83.6,1251.2,83.8,1251.2,83.8z M1268.9,83.8c0.1,0,0.1,0,0.2,0
			C1269,83.8,1268.9,83.8,1268.9,83.8L1268.9,83.8z M1276.6,74.8c-0.9,0.3-2,0.5-3,0.6c0.5-0.4,1-0.8,1.6-1.2
			C1276.1,74.6,1276.6,74.8,1276.6,74.8z M1272.6,72.8c-0.9,0.3-1.7,0.4-2.5,0.4c0,0,0.4-0.5,1-1.2
			C1271.6,72.3,1272.1,72.6,1272.6,72.8z M1295.8,63.8c0.3,0.1,0.5,0.3,0.8,0.4c-0.4,0-0.7,0.1-1.1,0
			C1295.5,64.2,1295.6,64.1,1295.8,63.8z M1300.1,65.6C1300.2,65.6,1300.2,65.6,1300.1,65.6L1300.1,65.6L1300.1,65.6z M1352.8,96.9
			c-0.8,0.4-1.6,0.7-2.4,0.9c0.4-0.2,0.9-0.5,1.4-0.7C1352.4,97,1352.8,96.9,1352.8,96.9z M1354.3,91.7c-2.1,0.6-4.5,0.9-6.8,1.1
			c1.4-0.5,3-1.2,4.4-2.2C1353.4,91.4,1354.3,91.7,1354.3,91.7z M1353.7,83.9L1353.7,83.9L1353.7,83.9L1353.7,83.9z M1349.8,89.6
			c-2.3,0.5-5.1,0.8-7.5,0.1c0,0,2.1-0.5,4.7-1.7C1348.1,88.6,1349,89.1,1349.8,89.6z M1343.1,69.4c0.4,0.2,0.8,0.5,1.1,0.7
			l-3.6,1.4C1340.6,71.5,1341.6,70.9,1343.1,69.4z M1346.3,71.7c0.2,0.1,0.3,0.3,0.5,0.4c-1.1,0.5-2.1,1.1-3.1,2.1L1346.3,71.7z
			 M1344.6,77.8c0.4,0.4,0.7,0.7,1.1,1.1c-0.7,0.2-1.4,0.3-2.1,0.2C1343.6,79.1,1344,78.6,1344.6,77.8z M1346,76.2
			c0.8-0.8,1.6-1.7,2.6-2.5c0.9,0.9,1.7,1.7,2.4,2.4c-0.6,0.4-1.4,0.9-2.2,1.3C1347.9,77.2,1346.9,76.7,1346,76.2z M1351.6,76.8
			c0.7,0.8,1.2,1.4,1.2,1.4c-0.7,0.1-1.4,0-2.1-0.2C1351,77.7,1351.3,77.3,1351.6,76.8z M1348.8,69.3L1348.8,69.3l0.2,0.1
			C1348.9,69.4,1348.9,69.3,1348.8,69.3z M1347.9,80.7c1.5,1.1,2.8,1.8,3.8,2.3c-1.4,0.5-3,0.9-4.8,0.9c-1-0.2-2-0.5-2.9-0.9
			C1344.9,82.7,1346.3,82,1347.9,80.7z M1317.3,87.8c0,0,1.1-0.1,2.6-0.5c1,0.6,2,1.1,2.7,1.5C1320.9,88.9,1319,88.6,1317.3,87.8z
			 M1319.2,78.1c-0.5-0.3-1.1-0.5-1.5-0.8c0.7-0.3,1.6-0.8,2.7-1.5c0.8,0.8,1.5,1.6,2.1,2.2C1321.4,78,1320.3,78.1,1319.2,78.1z
			 M1326.4,71.5l-1.3-0.3c0,0,0-0.1,0.1-0.1C1326,71.4,1326.4,71.5,1326.4,71.5z M1321,69.1c1.2,0.7,2.2,1.3,3.1,1.6
			c-0.1,0.1-0.2,0.1-0.3,0.2L1320,70C1320.4,69.7,1320.7,69.4,1321,69.1z M1319,71.2l1.5,1.1c-0.6-0.3-1.2-0.5-1.8-0.7
			C1318.8,71.4,1318.9,71.3,1319,71.2z M1317.4,73.2C1317.4,73.2,1317.3,73.2,1317.4,73.2C1317.3,73.2,1317.3,73.2,1317.4,73.2
			L1317.4,73.2z M1321,82c1.8,1.1,3.2,1.5,3.2,1.5l0,0c-2.3,0.6-4.5,0.4-6.5-0.2C1318.6,83,1319.7,82.6,1321,82z M1301.1,59.2
			c-0.3,0-0.6,0-0.9,0c0.1-0.1,0.2-0.2,0.3-0.2C1300.8,59.1,1301.1,59.2,1301.1,59.2z M1276.1,68.7c-0.7,0.2-1.5,0.3-2.2,0.3
			c0.3-0.3,0.6-0.6,0.9-0.8C1275.6,68.5,1276.1,68.7,1276.1,68.7z M1269.1,64c0.2,0.2,0.4,0.4,0.6,0.6l-2.6,1
			C1267.1,65.6,1267.9,65.1,1269.1,64z M1272,66.6c0.1,0.1,0.2,0.1,0.2,0.2c-0.7,0.4-1.4,0.9-2.1,1.6L1272,66.6z M1275.4,64.2
			c-0.3,0-0.6,0-0.9,0l0.5-0.5C1275.2,64,1275.4,64.2,1275.4,64.2z M1272.2,63.7c-0.6-0.2-1.3-0.6-1.9-0.9c0.6-0.6,1.2-1.2,1.8-2
			c0.8,0.8,1.5,1.6,2.1,2.2L1272.2,63.7z M1269.9,58.8c-1.2,0.3-2.5,0.5-3.6,0.4c0,0,0.8-0.6,1.9-1.6
			C1268.8,57.9,1269.3,58.3,1269.9,58.8z M1269.4,56.3c0.2-0.2,0.4-0.4,0.6-0.7l2.4,1.7C1271.4,56.9,1270.4,56.5,1269.4,56.3z
			 M1248.6,73.1c-1-0.2-2.1-0.6-3.1-1.1c0.7-0.4,1.5-0.8,2.3-1.3c0.9,0.9,1.5,1.7,1.9,2.1C1249.3,72.9,1249,73,1248.6,73.1z
			 M1243.7,72.9c0.3,0.3,0.6,0.6,0.9,0.9c-1.2,0.2-2.4,0.3-3.6,0.3C1241,74.1,1242.1,73.7,1243.7,72.9z M1247,66.3
			c-0.5-0.2-1-0.4-1.5-0.6c0.1-0.1,0.2-0.1,0.3-0.2L1247,66.3z M1243.3,66.9c0.9,0.6,1.8,1.3,2.6,2c-1.6,0.3-3.3,0.5-4.9,0.3
			c-0.2-0.2-0.3-0.3-0.3-0.3c0.1,0.1,0.1,0.2,0.2,0.3c-1-0.1-1.9-0.4-2.8-0.8C1238,68.3,1240.5,68.1,1243.3,66.9z M1248.1,76.5
			c0.5,0.3,1,0.5,1.3,0.7l-3.9,0.6c-0.1,0-0.1,0-0.2,0C1245.8,77.5,1246.8,77.1,1248.1,76.5z M1208.9,67.1L1208.9,67.1
			C1208.9,67.2,1208.8,67.2,1208.9,67.1L1208.9,67.1z M1213.1,68.5c2.6,0.3,4.8-0.2,4.8-0.2c-1.9,0.9-3.9,1.2-5.9,1.3
			C1212.3,69.2,1212.7,68.9,1213.1,68.5z M1219.1,64.3c-0.2,0.1-0.5,0.1-0.7,0.2c0.2-0.1,0.3-0.2,0.5-0.3
			C1219,64.2,1219.1,64.3,1219.1,64.3z M1211.4,65.2c-0.2,0-0.3,0-0.5,0l3.5-3.3c1,0.6,1.9,1.1,2.7,1.4
			C1215.4,63.5,1213.4,64.1,1211.4,65.2z M1209.4,72.5c0.7,0.3,1.3,0.5,1.9,0.7c-0.5,0.1-1.1,0.2-1.6,0.3c-0.3-0.1-0.6-0.1-0.9-0.2
			C1209,73.1,1209.2,72.9,1209.4,72.5z M1209.3,86.4c0.3,0.1,0.6,0.3,0.9,0.4c-0.6,0-1.2,0-1.8,0l0,0
			C1208.6,86.6,1208.9,86.5,1209.3,86.4z M932.5,145.9c0,0,0.6-0.2,1.5-0.6c0.2,0.2,0.4,0.4,0.6,0.6c-0.1,0.1-0.2,0.2-0.3,0.3
			C933.6,146.1,933,146,932.5,145.9z M934.7,144.9c0.7-0.3,1.4-0.8,2.3-1.3c-0.6,0.5-1.2,1.1-1.8,1.6
			C935.1,145.1,934.9,145,934.7,144.9z M967.7,112.9c0.1,0,0.1,0.1,0.2,0.1c-0.1,0-0.3,0-0.4-0.1C967.5,113,967.6,113,967.7,112.9z
			 M1011.2,100.8c-3.1,0.9-6.8,1-9.4,0.9c1.5-0.6,3.6-1.5,5.7-2.8C1009.6,100.2,1011.2,100.8,1011.2,100.8z M999.4,102.5
			c0.1,0.1,0.2,0.1,0.2,0.2c-0.2,0-0.4-0.1-0.6-0.1C999.1,102.6,999.2,102.6,999.4,102.5z M1074.9,82.1c-2.1,1-4.4,1.5-6.6,1.6
			c0.8-0.3,1.8-0.8,2.7-1.3C1073.3,82.4,1074.9,82.1,1074.9,82.1z M1029.4,94.7c0,0,0.7-0.2,1.8-0.8c0.5,0.4,1.1,0.8,1.6,1.2
			C1031.7,95.1,1030.6,95,1029.4,94.7z M1170.3,78.2c0.3,0.3,0.7,0.6,1,0.9c-1.2,0.2-2.4,0.2-3.6,0.2
			C1167.8,79.3,1168.8,78.9,1170.3,78.2z M1174.8,81.7c0.3,0.2,0.7,0.5,1,0.7l-3.9,0.6C1172,83,1173.2,82.5,1174.8,81.7z
			 M1177.9,83.7c0.3,0.1,0.5,0.3,0.7,0.4c-0.9,0.4-1.7,0.7-2.5,0.7L1177.9,83.7z M1178.7,79.5c0.8-0.5,1.6-1.1,2.2-1.7
			c1.8,1,3,1.3,3,1.3C1182.1,79.6,1180.4,79.7,1178.7,79.5z M1179.7,77.1c-1.4,0.4-3.2,1-5.2,1.4c-0.9-0.3-1.8-0.7-2.5-1.1
			c1.4-0.7,3-1.6,4.5-2.6C1177.6,75.7,1178.7,76.5,1179.7,77.1z M1167.1,74.2c-0.5-0.4-0.9-0.7-1.1-0.9c1.5-0.3,4.3-1,6.8-2.7
			c0.8,1,1.6,2,2.4,2.8C1172.7,74.3,1169.8,74.8,1167.1,74.2z M1165.9,73.3c0.2,0.3,0.4,0.5,0.6,0.8c-0.6-0.1-1.2-0.3-1.7-0.6
			C1164.8,73.5,1165.2,73.5,1165.9,73.3z M1181,85.3c0.7,0.3,1.3,0.6,1.8,0.9c-0.9,0-1.8,0-2.7,0C1180.4,85.9,1180.7,85.6,1181,85.3
			z M1131,74.7c1,0.8,2.1,1.5,3.2,2.1c-0.8,0.2-1.7,0.3-2.6,0.4c-1.4-0.5-2.6-1-3.4-1.4C1129,75.5,1130,75.2,1131,74.7z
			 M1137.2,78.1c2.5,0.9,4.5,1.2,4.5,1.2c-1.8,0-3.6-0.3-5.3-0.6C1136.6,78.5,1136.9,78.3,1137.2,78.1z M1137,82.7
			c-0.1,0-0.2,0-0.3,0.1l-6.3-1.5c0.8-0.2,1.7-0.5,2.6-0.9C1134.7,81.5,1136.2,82.3,1137,82.7z M1129.5,81.5l2,1.8
			c-1.7-0.1-3.4-0.4-5-1.2C1126.5,82.1,1127.7,81.9,1129.5,81.5z M1102.3,76.9c-0.5,0.1-1,0.2-1.4,0.4c-0.6-0.1-1.2-0.2-1.8-0.4
			c0,0,0.7-0.2,2-0.6C1101.8,76.7,1102.3,76.9,1102.3,76.9z M1100.7,82.1C1100.7,82.1,1100.8,82.1,1100.7,82.1L1100.7,82.1
			L1100.7,82.1z M1099.7,69c0,0,0.4-0.1,1-0.4c0.6,0.2,1,0.4,1,0.4c-0.3,0.1-0.7,0.1-1,0.2C1100.4,69.1,1100.1,69.1,1099.7,69z
			 M1100.8,63.3C1100.7,63.3,1100.7,63.3,1100.8,63.3C1100.7,63.3,1100.7,63.3,1100.8,63.3C1100.7,63.3,1100.7,63.3,1100.8,63.3
			C1100.7,63.3,1100.8,63.3,1100.8,63.3z M1099.8,52.5l-1.2-0.3c0.2-0.2,0.5-0.4,0.8-0.7c0.4,0.2,0.9,0.4,1.3,0.6L1099.8,52.5z
			 M1065.7,74.4c0,0,0.7-1,1.9-2.3c0.7,0.5,1.5,0.9,2.1,1.3C1068.4,74.1,1067,74.5,1065.7,74.4z M1066.9,68.5l2.9-2.8
			c0.5,0.3,0.9,0.7,1.3,0.9C1069.8,66.9,1068.4,67.5,1066.9,68.5L1066.9,68.5z M1067.7,88.7c2,0.6,3.4,0.8,3.4,0.8
			c-1.7,0-3.4-0.2-5-0.5C1066.4,88.9,1067,88.8,1067.7,88.7z M1042.6,94.8c-0.7,0-1.4,0-2-0.1c0.1-0.1,0.2-0.2,0.3-0.3
			C1041.9,94.7,1042.6,94.8,1042.6,94.8z M999.6,96.5c0,0,0.9-0.3,2.3-1c0.7,0.5,1.3,1,2,1.4C1002.6,97,1001.1,96.9,999.6,96.5z
			 M980.2,106.7c-1.7,0.8-3.5,1.2-5.3,1.3c0.3-0.3,0.6-0.7,0.9-1.1C978.2,107.1,980.2,106.7,980.2,106.7z M971.7,110.8
			c2.2,0.9,4.2,1.4,5.1,1.5c-0.1,0-0.1,0-0.2,0.1c-2-0.1-4.1-0.4-5.9-0.9C971,111.3,971.3,111.1,971.7,110.8z M940.9,132.7h-0.2l0,0
			C940.9,132.6,940.9,132.7,940.9,132.7z M938,131c-0.4,0.2-0.9,0.4-1.3,0.6l-0.5-0.1l1-1C937.4,130.7,937.7,130.8,938,131z
			 M934.7,132.7L934.7,132.7c-0.4,0.4-0.8,0.7-1.2,1.1l0,0L934.7,132.7z M934.8,138.4c0.6,0.5,1.2,0.9,1.8,1.3
			c-0.5,0.2-1,0.3-1.5,0.4c-0.4-0.2-0.8-0.4-1.2-0.7C934.2,139.2,934.5,138.8,934.8,138.4z M907.6,158.9c-0.8,0.4-1.7,0.7-2.6,0.9
			c0.4-0.3,0.8-0.5,1.2-0.7C907.1,159,907.6,158.9,907.6,158.9z M899.2,165.1c1.8,0.6,3.3,0.9,4.1,1.1c-0.1,0-0.1,0.1-0.2,0.1
			c-1.5,0-3-0.2-4.5-0.5C898.8,165.6,899,165.4,899.2,165.1z M867.1,172.2c-0.8,0.2-1.5,0.4-2.2,0.6c0.5-0.6,1-1.3,1.5-2
			c0.6,0.5,1.3,0.9,1.8,1.2C867.9,172.1,867.5,172.1,867.1,172.2z M1346.1,66c0.5-0.6,1-1.3,1.5-2.1c4.6,3.5,8.9,4.5,8.9,4.5
			L1346.1,66z M1346.8,63.3c-1.8,0.9-4.7,2-7.1,1.8c0,0,2.4-1.8,4.5-4.3C1345.1,61.7,1346,62.6,1346.8,63.3z M1341.9,57.8
			c0.4,0.7,0.9,1.3,1.3,1.8c-1.5,1-3.3,1.8-4.4,1.1L1341.9,57.8z M1327.3,65.1c-1.6,0.1-3.8-0.1-5.9-0.5l1.6-1.5
			C1325.1,64.5,1327.3,65.1,1327.3,65.1z M1322.4,62.6l-3.8,1.4c-0.7-0.2-1.3-0.3-1.8-0.4c0.9-0.9,2.1-2.1,3.3-3.7
			C1320.7,60.9,1321.5,61.8,1322.4,62.6z M1315.9,64.4c0.1,0.2,0.3,0.3,0.4,0.5l-1.9,0.7C1314.3,65.6,1314.9,65.2,1315.9,64.4z
			 M1303.3,50.2l-4.2-0.4c0.4-0.6,0.8-1.2,1.3-1.9C1301.8,49.6,1303.3,50.2,1303.3,50.2z M1294.5,55c0.2,0.2,0.4,0.5,0.6,0.7l-2.5,1
			C1292.5,56.6,1293.3,56.1,1294.5,55z M1270.8,54.8c0.4-0.5,0.7-0.9,1.1-1.4c3.4,2.5,6.5,3.2,6.5,3.2L1270.8,54.8z M1269.2,51.1
			c0.6,0.6,1.2,1.2,1.8,1.7c-0.7,0.6-1.6,1.1-2.4,1.6l-0.7-0.2l0.4,0.3c-1.1,0.5-2.2,0.8-2.9,0.3L1269.2,51.1z M1249.5,57.1
			c2.1,1.5,4.3,2.1,4.3,2.1c-1.6,0.1-3.8-0.1-6-0.5C1248.5,58.2,1249,57.7,1249.5,57.1z M1244.7,60.9c1,0.9,2,1.7,3,2.3
			c-0.6,0.2-1.3,0.4-2.1,0.6l-3-0.7l1.5,1.1c-2.3,0.5-4.9,0.7-7.3,0.1C1236.8,64.3,1240.6,63.4,1244.7,60.9z M1211.3,57.6
			c0.6-0.8,1.3-1.6,2-2.6c2.8,2.4,5.3,3.1,5.3,3.1C1216,58.8,1213.5,58.4,1211.3,57.6z M1217.9,53.7c-1,0.1-2.1-0.2-3.3-0.6
			c0.3-0.4,0.5-0.7,0.8-1.1c0,0-0.6,0.4-1.5,0.8c-1.8-0.8-3.5-2-4.5-2.7c0.7-0.8,1.3-1.7,1.9-2.6
			C1214.8,49.9,1217.9,53.7,1217.9,53.7z M1209.2,50.4c0.9,1.3,1.8,2.4,2.7,3.4c-1.4,0.6-3.2,1.3-4.9,1.6c-0.6-0.4-1.1-0.8-1.5-1.1
			C1206.4,53.3,1207.8,52,1209.2,50.4z M1205.2,54.4c0.3,0.4,0.6,0.7,0.9,1.1c-0.8,0.1-1.6,0.1-2.4,0.1
			C1203.8,55.6,1204.3,55.1,1205.2,54.4z M1173.7,55.3c5.6,6.8,13.1,8.5,13.1,8.5l-9.7-2.2c0.3-0.4,0.7-0.8,1-1.3
			c0,0-0.6,0.5-1.7,1.1l-2.9-0.7l1.8,1.3c-0.9,0.4-1.9,0.8-3,1.2c-1.5,0-2.5,0.1-2.5,0.1c0.4,0.1,0.7,0.2,1.1,0.3
			c-2,0.4-4.3,0.5-6.6-0.1C1164.1,63.3,1169.7,61.7,1173.7,55.3z M1173.5,64.8c2.8,1.7,5.5,4.3,7.3,6.2c-0.4,0.3-1.4,0.8-2.8,1.4
			c-1.5-0.7-3-1.6-4.2-2.4c0.8-0.6,1.5-1.3,2.1-2.1c0,0-1.4,0.6-3.4,1.2c-0.8-0.6-1.4-1-1.4-1c0.2,0.4,0.5,0.8,0.7,1.2
			c-2.4,0.6-5.5,1-8.2,0.3C1163.5,69.5,1168.8,68.2,1173.5,64.8z M1138.2,70.4c1.2-0.9,2.3-1.9,3.3-3.1c2.5,1.4,4.3,2.1,4.3,2.1
			C1143.5,70.1,1140.6,70.4,1138.2,70.4z M1135.7,61.8c0.8-1,1.6-2.1,2.4-3.4c3.5,3.9,7.3,4.9,7.3,4.9
			C1141.8,64.3,1138.3,63.2,1135.7,61.8z M1139,53.3c3.1,2.4,5.7,5.6,5.7,5.6c-3.4,0.3-8.4-3.5-9.2-4.2
			C1136.6,54,1137.8,53.5,1139,53.3z M1135.4,54.7c0.8,1.4,1.6,2.5,2.5,3.5c-0.7,0.5-2.1,1.6-3.8,2.6c-1.8-1.2-3-2.3-3-2.3
			c0.7,1,1.4,1.8,2.2,2.7c-2.2,1.2-4.8,2.3-6.9,2.1C1126.5,63.3,1130.7,57.6,1135.4,54.7z M1134.9,62.7c1.9,1.7,3.9,3,5.7,4.1
			c-3.3,1.7-9,3.9-15,2.2C1125.6,69,1130.4,67.6,1134.9,62.7z M1127.7,76c0.4,0.5,0.8,0.9,1.3,1.4c-1.4,0-2.8-0.1-4.1-0.5
			C1124.9,76.9,1126,76.6,1127.7,76z M1104.1,35.7l2.6,4.1c-1.3,0.7-3.3,0.5-5.3,0C1102.5,38.6,1103.5,37.2,1104.1,35.7z
			 M1096.2,38.2c0.3,0.6,0.6,1.1,0.9,1.6c-1,0.3-1.9,0.3-2.6-0.1L1096.2,38.2z M1066.8,78.1c1.3-0.6,3.1-1.7,4.9-3.5
			c2.8,1.5,4.8,2.3,4.8,2.3C1073.5,77.7,1069.8,78,1066.8,78.1z M1070.4,69.3c0.7-0.6,1.5-1.2,2.3-1.7c1.8,1,3.1,1.4,3.1,1.4
			C1074,69.5,1072.2,69.5,1070.4,69.3z M1072.6,63.1L1072.6,63.1L1072.6,63.1c-1.5-0.3-3-1-4.3-1.8c0.7-0.8,1.4-1.8,2.1-2.9
			c2.7,2.5,4.6,4.9,4.6,4.9C1074.2,63.4,1073.4,63.3,1072.6,63.1z M1068.5,52.7l2.6,1.8c-1-0.5-2-0.8-3-1.1
			C1068.3,53.2,1068.4,52.9,1068.5,52.7z M1063.5,53.6c0.7,0.3,1.4,0.7,2.1,1.1c-1.6,1.1-3.4,1.9-4.6,1.3L1063.5,53.6z M1046.9,85
			c-5.2,1.5-12.6,0.8-12.6,0.8c0.7,0.9,1.5,1.6,2.5,2.2c-0.9,0.6-2,1.2-3.2,1.7c-1-0.2-1.8-0.5-2.4-0.7c1.8-2.1,5.3-5.8,8.6-6.5
			c0,0-5.5-1.1-9.6,2.9l6.7-6.3C1041.6,82.9,1046.9,85,1046.9,85z M1033.6,75.9c1,1.1,2.1,2.2,3.2,3.1l-9.7,3.6
			C1027.1,82.7,1030,80.9,1033.6,75.9z M1013,82.7l-6.2-1.4l0.5-0.5l-1,0.4l-3.8-0.9l2.1,1.5l-1.4,0.5c-1.4-0.2-2.5-0.2-3.1-0.1
			c1.1-1.1,2.5-2.6,4-4.7C1008.2,81.6,1013,82.7,1013,82.7z M999.9,82.3c0.5,0.1,1.1,0.3,1.6,0.6l-4.1,1.6
			C997.4,84.4,998.4,83.8,999.9,82.3z M981.5,102.6c-2.7,0.8-6,0.9-8.6,0.9c1.5-1.3,3.2-2.4,4.8-2.8
			C979.9,102,981.5,102.6,981.5,102.6z M973.2,98l-8,3c0,0,2.2-1.4,5.3-5.1C971.4,96.6,972.3,97.3,973.2,98z M967.1,92.2
			c0.5,0.6,1,1.2,1.5,1.8c-1.4,0.4-2.8,0.7-4.2,0.6C964.4,94.6,965.6,93.6,967.1,92.2z M948.1,123.2c-4,1.9-8.6,1.4-11.8,0.6
			c0.6-0.7,1.2-1.5,1.9-2.4C942.1,124.5,948.1,123.2,948.1,123.2z M933,127.5c0.4,0.4,0.9,0.7,1.4,1.1l-4.8,1.8
			C929.6,130.4,930.9,129.6,933,127.5z M904.5,154.6l1.1-1l-3.3,1.2c-2,0.1-3.8,0.1-5.4,0.1c1.3-1.3,2.8-3.1,4.5-5.3
			c4.3,2.7,7.9,4.1,7.9,4.1C907.7,154.1,906.1,154.4,904.5,154.6z M900.2,140.5c4.2,4.1,8.4,5.3,8.4,5.3c-4,1.1-7.8,0.1-11-1.3
			C898.6,143.3,899.5,142,900.2,140.5z M894.3,144.2c-1.3,0.6-2.6,0.8-3.5,0.3l2-1.9C893.2,143.1,893.7,143.7,894.3,144.2z
			 M864.2,166c1.2-0.7,2.3-1.3,3.5-1.6c2,2,3.3,3.6,3.3,3.6C869,168.3,866.4,167.2,864.2,166z M858.7,158c1.5,0.5,3,1.4,4.5,2.4
			l-11.3,4.2C851.9,164.6,854.8,162.8,858.7,158z M813.6,200.9c-1.5,0.7-3.9,1.7-6,1.5c0,0,1.8-1.4,3.5-3.3
			C811.9,199.7,812.8,200.4,813.6,200.9z M808.8,197c0.4,0.4,0.8,0.8,1.2,1.2c-1.1,0.7-2.3,1.1-3.1,0.6L808.8,197z M70.5,80.2
			c-0.2,0.1-0.5,0.2-0.7,0.3l-7.2-1.7c0.9-0.5,1.8-1,2.7-1.7C67.1,78.5,69,79.5,70.5,80.2z M90,67.5c0.1,0.1,0.1,0.2,0.2,0.3
			c-0.1,0-0.2-0.1-0.3-0.1L90,67.5z M111.7,66.3c0.5,0.4,0.9,0.8,1.4,1.2c-1.1,0.3-2.2,0.5-3.2,0.4
			C109.8,67.9,110.6,67.3,111.7,66.3z M115,68.9c1,0.7,1.9,1.2,2.8,1.6l-1.2,0.4l-2.8-0.7C114.1,69.9,114.5,69.4,115,68.9z
			 M112.5,71.6l0.8,0.6l-0.6,0.2c-0.3-0.1-0.6-0.2-0.8-0.2C112.1,72,112.3,71.8,112.5,71.6z M186.5,105.7l2.5,1.8
			c-1.1-0.5-2.2-0.8-3.2-0.9C186,106.2,186.2,106,186.5,105.7z M215.3,108.3c-0.6,0.1-1.4,0-2.2,0c0.2-0.2,0.5-0.3,0.7-0.5
			C214.7,108.1,215.3,108.3,215.3,108.3z M227.5,108.2c-0.6,0.1-1.2,0.1-1.8,0.1c0,0,0.3-0.2,0.8-0.6
			C226.8,107.9,227.1,108,227.5,108.2z M231.9,109.9l-1.3-0.3c0,0,0,0,0.1-0.1C231.4,109.8,231.9,109.9,231.9,109.9z M253.2,132.9
			c0.2,0.2,0.3,0.4,0.5,0.6c-0.5-0.1-1-0.2-1.5-0.3C252.3,133.2,252.6,133.1,253.2,132.9z M262.9,118.2c1.8,1.2,3.6,1.8,3.6,1.8
			c-1.3,0.1-3.1-0.1-4.8-0.4C262.1,119.2,262.5,118.7,262.9,118.2z M277.6,114.9l0.8,1.2c-0.9,0.4-1.7,0.5-2.3,0.2L277.6,114.9z
			 M300.1,116.8l2.7,1.9c-0.3,0.2-0.6,0.5-1,0.7c-1.6-0.3-3-0.4-4-0.4L300.1,116.8z M355.4,117.3c0.9,0.8,1.7,1.4,2.2,1.7l-0.6,0.2
			l-3-0.3C354.5,118.4,354.9,117.9,355.4,117.3z M375.4,127.3l2.5,2.4c-0.1,0-0.1,0.1-0.2,0.1c-0.8,0-1.2,0.1-1.2,0.1
			c0.1,0,0.3,0.1,0.4,0.1c-1.3,0-2.5-0.4-3.5-0.8C374,128.6,374.7,128,375.4,127.3z M393.6,130.4l-1.1-0.2l0,0
			C393.2,130.4,393.6,130.4,393.6,130.4z M424.4,130c-1.3,0.1-2.9,0.4-4.6,1.1c-0.3-0.1-0.7-0.2-1-0.3l3.8-3.6L424.4,130z
			 M440,129.8c1,0.5,1.9,0.8,2.3,0.9c-0.1,0.1-0.3,0.1-0.4,0.2c-0.9,0-1.9,0-2.9-0.1L440,129.8z M464.5,134.8
			c0.5-0.5,1.1-1.2,1.6-1.8l2.3,2.3C467,135.5,465.6,135.2,464.5,134.8z M467.1,139.3c0.4,0.2,0.6,0.4,0.7,0.4c0,0,0,0-0.1,0l-1-0.1
			L467.1,139.3z M511.4,160c1.6,1.9,3.9,2.5,5.8,2.6c-0.9,0.3-1.8,0.6-2.8,0.9c-2.9-0.1-5.4-1-6.3-1.3
			C509.1,161.6,510.2,160.9,511.4,160z M520.6,162.4L520.6,162.4C520.5,162.4,520.5,162.4,520.6,162.4L520.6,162.4z M546.3,158.1
			c3,1.1,6.3,0.4,6.3,0.4c-2.5,1.2-5.4,1.2-7.7,0.9C545.4,159,545.9,158.6,546.3,158.1z M582.7,157.8c-0.4,0-0.7,0-1.2,0
			c0.1-0.1,0.2-0.2,0.3-0.3C582.3,157.7,582.7,157.8,582.7,157.8z M628.2,172.8c-0.3,0.1-0.7,0.2-1,0.2c0.1-0.2,0.3-0.3,0.4-0.5
			C627.9,172.7,628.2,172.8,628.2,172.8z M647.1,175.4c0.7,0.6,1.3,1,2,1.4c-1.8,0.2-3.6,0.1-5.2-0.7
			C644,176.2,645.4,176,647.1,175.4z M654.2,173.5c-0.8,0.1-1.9,0-3-0.1c0.3-0.2,0.6-0.5,0.8-0.7
			C653.3,173.2,654.2,173.5,654.2,173.5z M684.3,196.5l-3.4-0.8c0.1-0.1,0.2-0.3,0.4-0.4C683,196.2,684.3,196.5,684.3,196.5z
			 M705.5,212.5c1.5,1.3,2.6,1.8,2.6,1.8l-5.1-0.5C703.8,213.5,704.7,213.1,705.5,212.5z M702.4,214.1l1.1,1.7
			c-1.7,0.1-3.4,0-4.9-0.7C698.6,215,700.3,214.9,702.4,214.1z M705,218.1l0.5,0.7c-0.4-0.1-0.8-0.2-1.2-0.3
			C704.5,218.3,704.8,218.2,705,218.1z M682.4,206.5c-0.1,0-0.3,0.1-0.4,0.1c0.1-0.1,0.1-0.1,0.2-0.2
			C682.3,206.5,682.4,206.5,682.4,206.5z M678.3,206.6c-0.2,0-0.3-0.1-0.5-0.1l1.9-1.3c0.3,0.2,0.5,0.3,0.8,0.4
			C679.7,206.1,679,206.4,678.3,206.6z M677.5,203.6c0.4,0.4,0.8,0.7,1.2,1l-4.4,0.7c0,0-0.1,0-0.1-0.1
			C674.8,204.9,676.1,204.3,677.5,203.6z M681.8,202.8c-0.7,0.1-1.6-0.1-2.4-0.4c0.4-0.3,0.9-0.6,1.3-0.9
			C681.4,202.3,681.8,202.8,681.8,202.8z M679.8,200.5c-0.8,0.2-1.7,0.5-2.7,0.7c-0.8-0.5-1.5-0.9-2-1.3c0.8-0.4,1.7-1,2.5-1.5
			C678.3,199.2,679.1,199.9,679.8,200.5z M674.6,200.2c0.3,0.5,0.7,1,1,1.4c-1.7,0.3-3.6,0.6-5.3,0.6
			C670.3,202.2,672.3,201.5,674.6,200.2z M579.4,177.8c-2.1,0.7-4.4,1.2-6.4,0.9c0,0,1.8-0.9,3.9-2.2
			C577.9,177.1,578.8,177.5,579.4,177.8z M599.4,178.5c-1.4,0.2-2.9,0.1-4.2-0.2c0,0,1-0.2,2.4-0.8
			C598.3,177.9,598.9,178.3,599.4,178.5z M653.5,178.8l-1.7-0.4c0.1,0,0.1-0.1,0.2-0.1C652.9,178.7,653.5,178.8,653.5,178.8z
			 M650.1,184.1L650.1,184.1C650,184.1,650,184.1,650.1,184.1C650.1,184,650.1,184,650.1,184.1z M652.1,194c-0.1,0-0.3,0.1-0.4,0.1
			c0.1-0.1,0.2-0.1,0.3-0.2C652,194,652.1,194,652.1,194z M646.9,181c-0.2,0-0.3,0-0.5,0c0,0,0.1,0,0.3-0.1
			C646.8,180.9,646.9,180.9,646.9,181z M624.7,181c-0.5,0-1.1,0-1.6-0.1c0.1-0.1,0.2-0.1,0.3-0.2C624.2,180.9,624.7,181,624.7,181z
			 M618.5,182.6c0.7,0.4,1.3,0.7,1.7,1c-1.1-0.1-2.1-0.3-3.1-0.8C617.1,182.8,617.7,182.8,618.5,182.6z M625.4,173.3
			c-2.8,0.4-5.7,0.2-7,0.2c1.2-0.7,2.9-1.8,4.4-3.5c1.8,1.1,3.4,2,4.4,2.4C626.8,172.6,626.1,173,625.4,173.3z M617.1,170.6
			c0,0,1-1.4,2.6-2.9c0.7,0.6,1.3,1.1,2,1.5C620.2,170,618.5,170.7,617.1,170.6z M617.2,166.5l0.6-0.6l0,0
			C617.6,166.2,617.4,166.3,617.2,166.5z M618.3,165.5l2.8-2.7c0.4,0.4,0.7,0.8,1.1,1.2C621,164.2,619.7,164.7,618.3,165.5
			L618.3,165.5z M617.9,173.7c0.3,0.4,0.6,0.7,1,0.9c-0.8,0-1.6-0.1-2.4-0.4C616.5,174.3,617.1,174.1,617.9,173.7z M623.2,176.3
			c2.1,0.2,3.9-0.1,3.9-0.1c-1.8,0.8-3.7,1.1-5.5,1.1C622.2,177,622.7,176.6,623.2,176.3z M618.2,178.8c0.7,0.4,1.3,0.7,2,0.9
			c-0.9,0.1-1.8,0.1-2.7,0c-0.3-0.1-0.7-0.2-1-0.3C616.8,179.2,617.4,179.1,618.2,178.8z M595.6,173.2c0,0,0.7-0.2,1.7-0.7
			c0.6,0.5,1.3,0.8,1.8,1.1C598,173.6,596.8,173.5,595.6,173.2z M600.3,170.6c-0.1,0-0.1,0-0.2,0l0.1-0.1
			C600.3,170.5,600.3,170.6,600.3,170.6z M602.8,164.2l-1-0.2c0,0,0,0,0.1,0C602.5,164.2,602.8,164.2,602.8,164.2z M599.4,163.4
			l-0.8-0.2l0.6-0.5c0.3,0.2,0.6,0.3,0.9,0.5C599.8,163.3,599.6,163.3,599.4,163.4z M595.3,162.5l-0.6-0.1c0.4-0.4,1-0.9,1.7-1.5
			c0.4,0.3,0.8,0.6,1.1,0.9L595.3,162.5z M594.5,162.5l0.3,0.2l-1,0.4C593.8,163.1,594,162.9,594.5,162.5z M597.3,164.4L597.3,164.4
			C597.4,164.5,597.3,164.5,597.3,164.4L597.3,164.4L597.3,164.4z M598.9,169c-0.9,0.4-1.8,0.6-2.6,0.5l0,0c0,0,0.6-0.8,1.4-1.7
			C598.1,168.2,598.5,168.6,598.9,169z M581.9,163.1h-0.2l0,0C581.9,163.1,581.9,163.1,581.9,163.1z M576.4,166.3l-1,0.2
			c0,0,0.3-0.1,0.8-0.3C576.3,166.1,576.4,166.2,576.4,166.3z M572.2,163.2c0.1,0,0.2,0.1,0.2,0.1c-0.2,0-0.4,0-0.6,0
			C571.9,163.3,572,163.3,572.2,163.2z M579.5,162.2c-0.2,0.1-0.4,0.1-0.7,0.2l-3.2-0.7c0.5-0.2,0.9-0.5,1.4-0.8
			C577.9,161.5,578.8,161.9,579.5,162.2z M574.7,162.1l1.2,0.9c-0.2,0-0.4,0.1-0.6,0.1c-0.7-0.2-1.3-0.3-1.9-0.4
			C573.8,162.6,574.2,162.4,574.7,162.1z M578.1,172.3c0.7,0.4,1.3,0.6,1.7,0.8c-0.2,0.1-0.4,0.2-0.7,0.3c-0.9,0.1-1.8,0.1-2.7,0
			C576.9,173.1,577.4,172.7,578.1,172.3z M541.5,166.5l0.6,0.6c-0.8,0.1-1.5,0.1-2.2,0.1C539.9,167.2,540.5,167,541.5,166.5z
			 M550.1,163.3c-0.8,0-1.7-0.1-2.5-0.2c0.1-0.1,0.3-0.2,0.4-0.3C549.3,163.2,550.1,163.3,550.1,163.3z M546.5,166.4
			C546.4,166.4,546.4,166.4,546.5,166.4l-3.1-0.7c0.3-0.2,0.6-0.3,0.9-0.5C545.4,165.8,546.2,166.2,546.5,166.4z M546.2,162.3
			c-0.4,0.1-0.8,0.2-1.2,0.4c-1.4-0.4-2.7-0.8-3.8-1.2c0.5-0.2,1.1-0.4,1.7-0.7C544,161.4,545.2,161.9,546.2,162.3z M539.7,161.9
			c0.5,0.4,1,0.9,1.6,1.3c-1.3,0-2.7-0.2-3.9-0.8C537.4,162.4,538.4,162.3,539.7,161.9z M118.6,82.1c-0.9,0.1-1.9-0.1-3-0.4
			c0.5-0.3,1-0.7,1.6-1.2C118.1,81.4,118.6,82.1,118.6,82.1z M120.2,95.6c-1.3,0.4-2.6,0.6-4,0.8c0.6-0.3,1.6-0.7,2.8-1.3
			C119.7,95.4,120.2,95.6,120.2,95.6z M119.5,87.7c-2,0.5-4,0.5-5.9,0.2c0.9-0.3,2-0.7,3.3-1.4C118.4,87.4,119.5,87.7,119.5,87.7z
			 M185.5,129.3c0.1,0,0.2,0.1,0.3,0.1C185.7,129.4,185.5,129.4,185.5,129.3C185.4,129.4,185.4,129.4,185.5,129.3z M184.5,117.3
			c0.4,0.3,0.8,0.6,1.1,0.9l-4,1.5C181.6,119.7,182.7,119,184.5,117.3z M191.5,125.4c-1.1,0.5-2.3,0.8-3.5,1
			c0.2-0.2,0.5-0.5,0.7-0.8C190.3,125.7,191.5,125.4,191.5,125.4z M214.6,113.6l-1.4-0.3l0.1-0.1
			C214.1,113.5,214.6,113.6,214.6,113.6z M208.8,121.6c0.4,0.3,0.8,0.6,1.2,0.8c-0.9,0-1.9-0.1-2.7-0.3
			C207.2,122,207.8,121.9,208.8,121.6z M163.5,119.7l-1.1-0.2c0,0,0,0,0.1,0C163.1,119.6,163.5,119.7,163.5,119.7z M162.2,111.5
			c-0.7,0-1.5-0.1-2.2-0.2c0.3-0.3,0.6-0.8,1.1-1.3c0.8,0.4,1.6,0.8,2.2,1C162.9,111.2,162.6,111.4,162.2,111.5z M311.1,143H311
			C310.9,143,311,143,311.1,143C311,142.9,311.1,143,311.1,143z M309.5,148.2c-2.3,1.1-4.7,1.5-7,1.6c0.7-0.3,1.5-0.7,2.4-1.3
			C307.5,148.6,309.5,148.2,309.5,148.2z M336.9,127.7c-0.1,0-0.2,0-0.3,0c0.1-0.1,0.1-0.1,0.2-0.2
			C336.8,127.7,336.9,127.7,336.9,127.7z M355.5,125.6c0.3-0.3,0.5-0.6,0.8-0.9l0.3,0.5C356.3,125.4,355.9,125.5,355.5,125.6z
			 M355.5,130.8c-0.3,0-0.7,0-1,0c0.1-0.1,0.3-0.1,0.5-0.2C355.3,130.8,355.5,130.8,355.5,130.8z M390.7,145.9h-0.1l0,0
			C390.6,145.9,390.6,145.9,390.7,145.9L390.7,145.9z M464,142.2L464,142.2c-0.1,0.1-0.2,0.2-0.3,0.3L464,142.2z M416.7,158.7
			c1.1,0.6,2,1,2.5,1.2c-1.3-0.2-2.5-0.5-3.7-1.1C415.5,158.9,415.9,158.9,416.7,158.7z M466.2,145.6L466.2,145.6L466.2,145.6
			L466.2,145.6z M422.9,144.8l-4.2-1c0.2-0.1,0.4-0.2,0.5-0.3C421.4,144.5,422.9,144.8,422.9,144.8z M418.7,154.2
			c-1,0-2.1,0-3.1-0.1c-0.4-0.1-0.8-0.3-1.2-0.5c0.6-0.2,1.6-0.5,3-1C418,153.3,418.5,153.9,418.7,154.2z M374.5,138.3l-2,0.8
			c0,0,0.6-0.4,1.7-1.3L374.5,138.3z M335.3,135.3c-0.3-0.1-0.6-0.1-1-0.2c0,0,0.1,0,0.4-0.1C334.9,135.1,335.1,135.2,335.3,135.3z
			 M263.3,143.9c-1.2,0.6-2.4,0.9-3.7,1c0.5-0.2,1.1-0.5,1.7-0.8C262.5,144.1,263.3,143.9,263.3,143.9z M302.1,138.1L302.1,138.1
			c-0.2,0.2-0.3,0.3-0.5,0.5L302.1,138.1z M297.7,135.1c0,0,0.1,0,0.2-0.1l0,0L297.7,135.1z M263.3,135.2c0.4,0.2,0.6,0.2,0.6,0.2
			c-0.5,0.1-1,0.2-1.4,0.2C262.7,135.5,263,135.3,263.3,135.2z M261.9,139.4c-2.7,0.3-5.6,0.1-8.1-1.1c0,0,2-0.2,4.6-1
			C259.7,138.2,260.9,138.9,261.9,139.4z M511.7,168.6c1.6,1,2.9,1.7,2.9,1.7l-4.2-1C510.8,169.1,511.2,168.9,511.7,168.6z
			 M518.1,167.2c-1.1,0-2.2-0.1-3.3-0.3c0.2-0.1,0.4-0.2,0.6-0.4C517,167.1,518.1,167.2,518.1,167.2z M508.9,169.9l2.1,1.9
			c-0.1,0-0.2,0-0.4,0c-1.6-0.2-3-0.7-3.9-1.1C507.4,170.5,508.1,170.2,508.9,169.9z M416.9,132.7
			C416.9,132.7,416.9,132.8,416.9,132.7c-0.4,0.4-0.8,0.8-1.3,1.2L416.9,132.7z M420.1,135c2.1,1.1,3.9,1.6,3.9,1.6
			c-1.4,0.1-3.3,0-5.2-0.3C419.2,135.9,419.6,135.5,420.1,135z M415.1,145.7l0.2,0.1C415.2,145.7,415.2,145.7,415.1,145.7
			L415.1,145.7z M389.8,140.2c-0.1,0-0.2,0-0.2,0l0.1-0.1C389.7,140.2,389.8,140.2,389.8,140.2z M390.3,129.7l-2.4-0.5l0.7-0.6
			c0.8,0.4,1.6,0.8,2.3,1C390.7,129.6,390.5,129.7,390.3,129.7z M354.9,122.6L354.9,122.6c-0.3,0.4-0.7,0.7-1.1,1.1L354.9,122.6z
			 M353.1,119.8l0.4,0.7l-2.3,0.9C351.2,121.4,352,120.9,353.1,119.8z M338.1,121.1l-0.4-0.1l0.1-0.1c0.2,0.1,0.3,0.1,0.4,0.2
			C338.2,121,338.1,121.1,338.1,121.1z M331.7,119.6L331.7,119.6c0.2-0.2,0.8-0.6,1.6-1.4c0.2,0.2,0.4,0.3,0.7,0.5L331.7,119.6z
			 M335.9,115.7c0.3-0.4,0.7-0.7,1-1.1c1.6,1,3.2,1.5,3.2,1.5C339,116.1,337.4,116,335.9,115.7z M309.4,142.2c-1,0.6-2,1.2-3.1,1.6
			c-1.4,0.2-2.8,0.2-4.2,0.3c0.7-0.9,1.9-2.4,3.5-3.9C307.1,141.1,308.4,141.8,309.4,142.2z M306.5,135.5c-0.5,0-1,0-1.5-0.1l2-1.9
			c1.1,0.6,2,1,2.6,1.3C308.6,134.9,307.5,135.2,306.5,135.5z M304.6,128.3c0.6-0.7,1.2-1.5,1.8-2.4c1.9,1.9,3.1,3.5,3.1,3.5
			C308,129.6,306.3,129.1,304.6,128.3z M298.4,125.4c0.3,0.5,0.7,1,1,1.4c-1,0.2-2,0.2-2.9,0.1C296.5,126.9,297.3,126.4,298.4,125.4
			z M298.9,125c0.9-0.8,1.9-1.8,2.9-3c1.2,0.9,2.4,1.9,3.4,2.9c-1.2,0.6-2.6,1.1-4.2,1.6C300.2,125.9,299.5,125.4,298.9,125z
			 M303.5,119.8c0.1-0.2,0.2-0.3,0.3-0.5l1.9,1.3C305,120.3,304.2,120,303.5,119.8z M297.4,119.4c0.8,0.3,1.6,0.7,2.4,1.2
			c-1.6,0.9-3.3,1.4-4.4,0.7L297.4,119.4z M302.8,130.5c0.8,0.7,1.6,1.3,2.3,1.9l-4.8,1.8c-0.3-0.1-0.6-0.2-0.9-0.4
			C300.3,133,301.4,132,302.8,130.5z M279.4,117.7l1.1,1.7c-1.2,0.4-2.5,0.7-3.7,0.5C276.9,120,278.1,119.1,279.4,117.7z
			 M261.3,129.5c1.2,1.2,2,2.2,2,2.2c-1.2,0.1-2.7-0.4-4.1-1.1C259.9,130.3,260.6,129.9,261.3,129.5z M257.8,131.2
			c0.8,0.9,1.6,1.6,2.3,2.1c-1.6,0.3-3.4,0.4-5.1,0.3c-0.5-0.3-0.9-0.6-1.3-0.9C254.7,132.5,256.1,132,257.8,131.2z M211.5,112.4
			c-0.2,0.1-0.5,0.2-0.7,0.3l-1.9-0.4c0.2-0.3,0.5-0.6,0.8-0.9C210.4,111.8,211,112.1,211.5,112.4z M209.5,117.2
			c-0.6-0.1-1.3-0.2-1.9-0.3c0,0,0.4-0.1,1.1-0.4C209,116.7,209.3,117,209.5,117.2z M185.9,122.8L185.9,122.8l2.8-2.7
			c0.2,0.1,0.4,0.2,0.7,0.4C188.2,121,187,121.8,185.9,122.8z M189.8,111.3c1,1.1,1.7,1.9,1.7,1.9c-0.8,0.1-1.8-0.2-2.7-0.5
			C189.1,112.2,189.4,111.8,189.8,111.3z M185,107.3c1.1,0.7,2.3,1.6,3.3,2.5c-0.9,0.4-1.8,0.7-2.9,1c-1-0.7-1.8-1.3-1.8-1.3
			c0.3,0.5,0.6,1,1,1.5c-1.4,0.3-2.8,0.5-4.1,0.4C180.5,111.5,182.7,109.8,185,107.3z M187.5,114.2c1.2,1,2.3,1.7,3.2,2.1l-2.1,0.8
			c-1.1-0.1-2.1-0.4-3-0.8C186.1,115.7,186.8,115,187.5,114.2z M161.6,105.9l2.5-2.4l0.9,1.3C164.1,105.1,163,105.5,161.6,105.9z
			 M158.1,105.2c-0.1,0-0.3-0.1-0.4-0.1c0.9-0.7,2.5-2.2,4.4-4.7l1.8,2.7L158.1,105.2z M115.9,79c-1,0.4-2,0.7-2.8,0.6
			c0,0,0.6-0.8,1.5-1.9C115,78.2,115.5,78.6,115.9,79z M92.7,81c0.1,0,0.1,0.1,0.2,0.1l-0.7,0.3C92.1,81.4,92.3,81.3,92.7,81z
			 M94.6,79.4c0.3-0.2,0.5-0.5,0.8-0.8c0.5,0.6,0.8,1,0.8,1C95.7,79.7,95.2,79.6,94.6,79.4z M96.7,67.8c0.2-0.3,0.4-0.5,0.6-0.8
			c1.2,0.6,2.2,0.9,2.2,0.9C98.7,68,97.7,67.9,96.7,67.8z M96.5,72.4c-0.2,0.1-0.3,0.1-0.5,0.2l-3.3-0.8c0.3-0.3,0.7-0.6,1-0.9
			C94.7,71.6,95.7,72.1,96.5,72.4z M91.9,72.5l1,0.7c-0.2,0-0.4,0-0.7,0c-0.3-0.1-0.6-0.2-0.9-0.2C91.4,72.9,91.6,72.7,91.9,72.5z
			 M68.5,95.9l0.2-0.1c0,0,0.1,0,0.1,0.1C68.7,95.9,68.6,95.9,68.5,95.9z M59.8,88c0.2,0.2,0.3,0.5,0.5,0.7
			c-0.8,0.1-1.7,0.1-2.5,0.1C57.8,88.9,58.5,88.6,59.8,88z M70.2,91.2c-0.5,0.1-1.1,0-1.7-0.1c0.4-0.2,0.7-0.4,1.1-0.6
			C70,90.9,70.2,91.2,70.2,91.2z M64.4,93c0.1,0.1,0.2,0.2,0.4,0.3l-1.7,0.3C63.2,93.6,63.7,93.4,64.4,93z M62.4,88.5
			c-0.5-0.3-1.1-0.7-1.5-1c1.1-0.5,2.5-1.2,4-2c0.8,0.7,1.6,1.5,2.2,2.1C65.6,88,64,88.3,62.4,88.5z M74,81.4l-2.2-0.5
			c0.1,0,0.1-0.1,0.2-0.1C73.2,81.2,74,81.4,74,81.4z M61.8,79.2l3.9,2.7c-0.1,0-0.2,0-0.3,0.1c-3.4-1.3-6.7-1.2-8-1.1
			C58.7,80.4,60.3,79.9,61.8,79.2z M57,80.9c1.3,0.3,2.6,0.9,4,1.8c-2.4,0.2-4.8-0.1-7-1.2C54,81.5,55.2,81.3,57,80.9z M67.3,102.5
			c0.9,0.5,1.8,0.9,2.4,1.2c-0.6,0.3-1.3,0.6-2,0.8c-0.8-0.2-1.7-0.5-2.5-0.7C65.8,103.5,66.5,103,67.3,102.5z M708.6,205.3
			c0.4,0.4,0.6,0.6,0.6,0.6H708C708.2,205.7,708.4,205.5,708.6,205.3z M708.7,209.8c-1.8,0.4-3.5-0.2-4.8-0.8c0.8-0.5,1.6-1,2.4-1.6
			L708.7,209.8z M703,209.6c0.5,0.7,1,1.3,1.4,1.9c-2,0.5-4.6,0.8-6.8,0.2C697.6,211.7,700.1,211.1,703,209.6z M678.8,186.3
			c1.4,3.5,6.2,4.8,6.2,4.8c-2.6,0.2-7.4-0.9-9.4-1.5C676.8,188.7,677.9,187.6,678.8,186.3z M675.1,190.1c1.9,2.6,4.2,4.2,6,5.2
			c-0.1,0.1-0.3,0.2-0.6,0.3l-5-1.2l3,2.1c-0.1,0-0.2,0.1-0.3,0.1c-2.7-0.9-5.2-0.6-5.2-0.6c1,0.2,2,0.7,3,1.4
			c-2.6,0.8-5.7,1.2-8.3-0.1c0,0,6.2-0.6,9.2-4.7c0,0-5.9,2.6-10.2,1.3C666.8,194,671.2,193,675.1,190.1z M654.9,165.2
			c0.7,0.5,1.2,0.7,1.2,0.7l-1.6-0.2C654.6,165.6,654.8,165.4,654.9,165.2z M655,169.8c-1.1,0.6-3,0.2-4.6-0.3c1-0.7,2-1.4,2.9-2.3
			L655,169.8z M649,170.3c0.7,0.8,1.5,1.4,2.2,1.9c-0.8,0.3-1.8,0.5-2.9,0.7c-1.3-0.3-2.4-0.5-3.3-0.8
			C646.2,171.7,647.6,171.1,649,170.3z M644.3,172.4c0.2,0.2,0.4,0.5,0.5,0.7c-0.7,0-1.3-0.1-1.9-0.3
			C642.9,172.8,643.5,172.6,644.3,172.4z M624.4,167.9c0.2-0.3,0.4-0.6,0.5-0.9c0,0-0.4,0.3-1.1,0.8c-1.2-0.2-2.3-0.6-3.3-1
			c0.8-0.7,1.6-1.4,2.5-1.9c2.5,2.1,4.7,2.7,4.7,2.7C626.6,167.9,625.5,168,624.4,167.9z M620.5,158c3.3,1.8,6.6,6,6.6,6
			c-1.6,0.2-3.7-0.8-5.3-1.8l1-1l-1.6,0.6c-1.1-0.7-1.9-1.4-1.9-1.4c0.4,0.6,0.7,1.2,1.1,1.7l-4.5,1.7c-0.1,0-0.1-0.1-0.1-0.1
			s0,0.1,0.1,0.1l-1.3,0.5C614.6,164.2,617.3,162.6,620.5,158z M599.6,156.9c1.8,1.4,4,2,4,2c-1.3,0.1-3.3-0.1-5.1-0.5
			C598.8,158,599.2,157.4,599.6,156.9z M593.4,157.5c0.1,0.1,0.1,0.2,0.2,0.3c-0.2,0-0.4,0-0.6,0C593,157.8,593.2,157.6,593.4,157.5
			z M581.2,157.2c-0.3,0.2-0.6,0.3-1,0.5c-1.7-0.2-3.6-0.6-5.1-0.9c0.9-0.5,1.8-1.1,2.6-1.9C578.8,156,580.1,156.8,581.2,157.2z
			 M573.4,157.5c0.5,0.6,1,1.2,1.6,1.7c-1.9,0.2-3.8,0.1-5.5-0.7C569.4,158.5,571.2,158.3,573.4,157.5z M543.6,155.8
			c1.5-1,3-2.2,4.3-3.8c3.1,2,5.7,3.1,5.7,3.1C550,156.2,545.1,155.9,543.6,155.8z M545.4,143.7c3.3,5.1,7.8,6.3,7.8,6.3
			c-3.4,0.9-6.8-0.5-9-1.8c0.3-0.5,0.7-1,1-1.6c0,0-0.6,0.5-1.6,1.2c-1.4-0.9-2.3-1.8-2.3-1.8c0.5,0.7,1.1,1.4,1.7,2.1
			c-1.6,1.1-3.9,2.2-5.7,2.1C537.4,150.2,541.6,144.5,545.4,143.7z M543.7,148.8c1.2,1.2,2.6,2.2,3.9,3.1c-1.8,1.1-6.1,3.3-10.8,2
			C536.8,153.9,540.6,152.8,543.7,148.8z M543.3,156c0.7,0.9,1.6,1.5,2.6,1.9c-0.7,0.3-2,0.7-3.5,1c-1.6-0.4-2.7-0.9-2.7-0.9
			c0.3,0.4,0.7,0.8,1.1,1.1c-1.5,0.2-3.1,0.2-4.5-0.2C536.4,159,539.8,158.2,543.3,156z M511.7,159.7c1.3-1,2.6-2.4,3.9-4
			c3.2,2.1,6,3.3,6,3.3C518.1,160,513.3,159.8,511.7,159.7z M516.9,154c0.3-0.5,0.7-1,1-1.6c0,0-0.7,0.6-1.9,1.4
			c-1.7-0.5-3.2-1.3-4.4-2.1c1-0.9,2-1.7,3.1-2.3c3.1,3.6,6.5,4.5,6.5,4.5C519.7,154.3,518.3,154.2,516.9,154z M513.9,144.2
			c3.3,1.8,6.7,6,6.7,6c-1.4,0.1-3.2-0.6-4.7-1.5c0.8-0.4,1.7-0.7,2.5-0.9c0,0-1.7-0.3-4.1-0.1c-0.9-0.6-1.5-1.1-1.5-1.1
			c0.3,0.4,0.5,0.8,0.8,1.2c-2.3,0.4-5.1,1.4-7.5,3.7L513.9,144.2z M511.2,152.1c1,1,2.1,2,3.2,2.8c-2.5,1.6-5.8,3.2-8.4,3
			C506,157.9,508.2,154.8,511.2,152.1z M508,162.2c0.6,0.7,1.3,1.3,2.1,1.9c-1.6,0.1-3.3-0.1-5.1-0.6
			C505,163.5,506.2,163.2,508,162.2z M506,170.9c0.1,0.2,0.3,0.4,0.4,0.6c-0.5,0-1.1-0.1-1.6-0.1c-0.1,0-0.3-0.1-0.4-0.1
			C504.4,171.4,505,171.2,506,170.9z M484.6,139.8h-3.7c-0.7-0.1-1.4-0.2-2.2-0.3c0.5-0.3,1.2-0.8,2-1.5
			C482.3,138.9,483.9,139.5,484.6,139.8z M469.9,128.6c-0.2,0-0.4,0-0.5,0c0.2-0.4,0.5-0.7,0.7-1.1L469.9,128.6z M469,131.3h-1.6
			c0.2-0.3,0.5-0.6,0.7-1C468.6,131,469,131.3,469,131.3z M463.4,135.9c0.4,0.5,0.7,0.9,1.1,1.3l-4.8,1.8
			C459.8,139,461.2,138.1,463.4,135.9z M441.4,121.5l2.4,3.7h-5.6c-0.3-0.1-0.5-0.1-0.8-0.2C438.2,124.5,439.8,123.5,441.4,121.5z
			 M421.4,119.9c2.3,3.9,5.4,5.3,5.4,5.3l-5.9-0.6l1.3,1.9l-7.4,2.8c-0.2-0.1-0.4-0.2-0.4-0.2c0,0.1,0.1,0.2,0.1,0.3l-2.8,1.1
			C411.7,130.4,416.1,127.7,421.4,119.9z M379.8,121.1L379.8,121.1l-0.3,2.1c-0.3,0.1-0.6,0-0.8,0
			C379.1,122.5,379.5,121.8,379.8,121.1z M378.6,126h-2c0.3-0.4,0.7-0.8,1-1.2C378.1,125.5,378.6,126,378.6,126z M372.5,129.9
			c0.2,0.3,0.5,0.6,0.7,0.9c-0.6,0.1-1.2,0.1-1.9,0C371.4,130.8,371.8,130.5,372.5,129.9z M357.2,114.9c0.2-0.3,0.4-0.6,0.7-1
			l0.9,0.9C358.3,114.9,357.8,114.9,357.2,114.9z M357.8,113.8c-0.3,0.2-0.9,0.5-1.7,0.9c-1.2-0.3-2.2-0.7-2.9-1.1
			c0.7-0.7,1.4-1.5,2-2.4L357.8,113.8z M352.8,114c0.3,0.6,0.7,1.1,1.1,1.6c-1.1,0.3-2.3,0.6-3.4,0.5
			C350.5,116,351.6,115.2,352.8,114z M341.6,108.4c0.2,0.1,0.4,0.2,0.4,0.2h-0.4C341.5,108.5,341.6,108.4,341.6,108.4z M339.9,110.9
			l1,1.5c-0.6,0.3-1.4,0.4-2.3,0.3C339,112.1,339.4,111.5,339.9,110.9z M299.3,110c5.7,7.9,14,9.7,14,9.7l-8.5-2
			c0.2-0.4,0.4-0.8,0.5-1.2c0,0-0.4,0.4-1.2,1l-3.9-0.9l1.2-1.2h-7.7C293.7,115.5,296.9,114,299.3,110z M283.5,115.5l-2-0.2
			c0.2-0.2,0.3-0.5,0.5-0.7C282.8,115.2,283.5,115.5,283.5,115.5z M281.5,114.2c-0.4,0.3-0.8,0.6-1.3,1l-2.5-0.3l2.2-2.2
			C280.4,113.3,281,113.8,281.5,114.2z M277.9,110c0.6,1,1.2,1.8,1.8,2.5H275C275,112.5,276.5,111.8,277.9,110z M265.3,109.8
			c1.4,2,3.1,2.7,3.1,2.7l-3.9-0.4l2.7,4.2c-0.7,0.4-1.8,0.4-3,0.1c0.5-0.7,1-1.5,1.5-2.3c0,0-1.1,0.9-2.8,2
			c-1.5-0.5-2.8-1.1-2.8-1.1c0.3,0.8,0.8,1.4,1.3,2c-1.1,0.6-2.2,1.3-3.4,1.7c-1.2-0.3-2-0.5-2-0.5c0.2,0.3,0.4,0.7,0.7,1
			c-1,0.3-2.1,0.5-3,0.4C253.8,119.6,259.7,111.7,265.3,109.8z M259.2,121.8c1.8,1.5,3.5,2.4,4.8,2.9c-0.1,0-0.2,0.1-0.3,0.1
			l-6.6-1.5l3.3,2.3c-0.1,0-0.1,0-0.2,0c-2.8-1.1-5.6-0.7-5.6-0.7c0.7,0.1,1.5,0.5,2.2,0.9c-1.3,0-2.6-0.2-3.9-0.6
			C252.9,125.3,255.8,124.5,259.2,121.8z M233,101.7c-0.5,0.1-1.1,0.1-1.7,0c0-0.1,0.1-0.2,0.1-0.2s-0.1,0.1-0.3,0.2
			c-0.9,0-1.9-0.1-2.9-0.3l0.7-0.7h-4.7c-0.1,0-0.2,0-0.3-0.1c0.4-0.2,1.6-0.9,2.7-2.3C229.6,100.7,233,101.7,233,101.7z
			 M225.8,97.7c-0.7,0.2-1.5,0.3-2.3,0.2l1.3-1.3C225.1,96.9,225.5,97.3,225.8,97.7z M223.7,94.7c0.1,0.2,0.2,0.4,0.3,0.6h-0.8
			C223.2,95.3,223.4,95.1,223.7,94.7z M212.2,106.9c-0.7,0.2-1.4,0.5-2.1,0.9c-0.1,0-0.2,0-0.3-0.1l1.6-1.5
			C211.6,106.5,211.9,106.7,212.2,106.9z M209.2,103.7c0.3,0.6,0.6,1.1,1,1.5l-4.3,1.6l0,0C206,106.7,207.3,105.8,209.2,103.7z
			 M186.8,105.2c0.4-0.5,0.7-1,1-1.5c3.1,2.4,6.1,3.1,6.1,3.1L186.8,105.2z M184.9,100.6c0.7,0.9,1.4,1.7,2.2,2.4
			c-2.3,1.8-5.7,4-7.7,2.9L184.9,100.6z M167.4,100l-4.5-0.5c0.6-0.5,1.1-1.1,1.6-1.6C166.1,99.4,167.4,100,167.4,100z M161.6,94.1
			c0.8,1.6,1.8,2.8,2.7,3.7c-0.2,0.1-0.4,0.2-0.6,0.3c0,0,0-0.1,0.1-0.1c0,0-0.5,0.3-1.2,0.7c-0.4,0.2-0.9,0.4-1.4,0.7
			c-1.5,0.6-3.3,1.2-4.9,1C156.2,100.4,160,97.5,161.6,94.1z M148.9,85.6c-0.3,0.1-0.7,0-1-0.1c0.4-0.2,0.7-0.5,1.1-0.8L148.9,85.6z
			 M150.7,75.3l-0.4,5.2c-2,1-4.2,1.8-6,1.6C144.3,82.1,147.1,78.3,150.7,75.3z M147.2,85.9c0.6,0.9,1.1,1.4,1.1,1.4h-3l0.9,0.8
			c-0.9-0.1-1.9-0.2-2.8-0.5C143.4,87.7,145,87.3,147.2,85.9z M145.3,94.8l0.8,1.3c-1.2,0-2.3-0.2-3.4-0.5
			C142.7,95.6,143.7,95.3,145.3,94.8z M117.6,71.2l0.5-0.5c2.5,1.2,4.2,1.6,4.2,1.6L117.6,71.2z M109.8,64.4c-0.3,0-0.5-0.1-0.7-0.2
			l0.3-0.3C109.6,64.1,109.7,64.3,109.8,64.4z M100.2,64.2c-0.3,0.2-0.8,0.3-1.3,0.3c0.2-0.4,0.4-0.9,0.6-1.3L100.2,64.2z M95.7,66
			c-0.7,0.5-1.4,0.9-2.1,1.2c-1-0.2-1.9-0.4-2.7-0.6l2.8-2.7C94.2,64.8,94.9,65.5,95.7,66z M75.1,73.2c-3.2,0.3-8.4-0.8-12-1.6
			c1.4-0.9,2.8-1.9,4.1-3.1C70.3,71.9,75.1,73.2,75.1,73.2z M60.9,72.9c0.9,1.1,1.8,2,2.7,2.8c-3.2,0.9-7.6,1.6-11.2,0.5
			C52.4,76.3,56.4,75.3,60.9,72.9z"/>
	</g>
</g>
</svg>
